<?xml version="1.0" encoding="UTF-8" standalone="no"?><svg xmlns="http://www.w3.org/2000/svg" xmlns:xlink="http://www.w3.org/1999/xlink" contentStyleType="text/css" height="872px" preserveAspectRatio="none" style="width:1844px;height:872px;background:#FFFFFF;" version="1.1" viewBox="0 0 1844 872" width="1844px" zoomAndPan="magnify"><defs/><g><!--class consumable--><g id="elem_consumable"><rect codeLine="10" fill="#FFFFFF" height="288.4531" id="consumable" rx="2.5" ry="2.5" style="stroke:#000000;stroke-width:1.0;" width="228" x="12" y="20.5"/><ellipse cx="79.75" cy="34.5" fill="#FFFFFF" rx="9" ry="9" style="stroke:#000000;stroke-width:1.0;"/><path d="M82.7188,40.1406 Q82.1406,40.4375 81.5,40.5781 Q80.8594,40.7344 80.1563,40.7344 Q77.6563,40.7344 76.3281,39.0938 Q75.0156,37.4375 75.0156,34.3125 Q75.0156,31.1875 76.3281,29.5313 Q77.6563,27.875 80.1563,27.875 Q80.8594,27.875 81.5,28.0313 Q82.1563,28.1875 82.7188,28.4844 L82.7188,31.2031 Q82.0938,30.625 81.5,30.3594 Q80.9063,30.0781 80.2813,30.0781 Q78.9375,30.0781 78.25,31.1563 Q77.5625,32.2188 77.5625,34.3125 Q77.5625,36.4063 78.25,37.4844 Q78.9375,38.5469 80.2813,38.5469 Q80.9063,38.5469 81.5,38.2813 Q82.0938,38 82.7188,37.4219 L82.7188,40.1406 Z " fill="#000000"/><text fill="#000000" font-family="Verdana" font-size="14" lengthAdjust="spacing" textLength="85" x="97.25" y="39.3467">consumable</text><line style="stroke:#000000;stroke-width:1.0;" x1="13" x2="239" y1="48.5" y2="48.5"/><text fill="#000000" font-family="Verdana" font-size="14" lengthAdjust="spacing" textLength="108" x="18" y="65.4951">version: integer</text><text fill="#000000" font-family="Verdana" font-size="14" lengthAdjust="spacing" textLength="126" x="18" y="81.792">currency_id: bigint</text><text fill="#000000" font-family="Verdana" font-size="14" lengthAdjust="spacing" textLength="123" x="18" y="98.0889">is_active: boolean</text><text fill="#000000" font-family="Verdana" font-size="14" lengthAdjust="spacing" textLength="177" x="18" y="114.3857">permission_tree_id: bigint</text><text fill="#000000" font-family="Verdana" font-size="14" lengthAdjust="spacing" textLength="91" x="18" y="130.6826">site_id: bigint</text><text fill="#000000" font-family="Verdana" font-size="14" lengthAdjust="spacing" textLength="216" x="18" y="146.9795">unit_of_measurement_id: bigint</text><text fill="#000000" font-family="Verdana" font-size="14" lengthAdjust="spacing" textLength="75" x="18" y="163.2764">notes: text</text><text fill="#000000" font-family="Verdana" font-size="14" lengthAdjust="spacing" textLength="160" x="18" y="179.5732">created_on: timestamp</text><text fill="#000000" font-family="Verdana" font-size="14" lengthAdjust="spacing" textLength="180" x="18" y="195.8701">created_by_user_id: bigint</text><text fill="#000000" font-family="Verdana" font-size="14" lengthAdjust="spacing" textLength="166" x="18" y="212.167">modified_on: timestamp</text><text fill="#000000" font-family="Verdana" font-size="14" lengthAdjust="spacing" textLength="186" x="18" y="228.4639">modified_by_user_id: bigint</text><text fill="#000000" font-family="Verdana" font-size="14" lengthAdjust="spacing" textLength="151" x="18" y="244.7607">consumable_id: bigint</text><line style="stroke:#000000;stroke-width:1.0;" x1="13" x2="239" y1="252.0625" y2="252.0625"/><text fill="#000000" font-family="Verdana" font-size="14" lengthAdjust="spacing" textLength="122" x="18" y="269.0576">code: varchar(50)</text><text fill="#000000" font-family="Verdana" font-size="14" lengthAdjust="spacing" textLength="173" x="18" y="285.3545">description: varchar(100)</text><text fill="#000000" font-family="Verdana" font-size="14" lengthAdjust="spacing" textLength="173" x="18" y="301.6514">unit_price: numeric(19,4)</text></g><!--class meter--><g id="elem_meter"><rect codeLine="27" fill="#FFFFFF" height="467.7188" id="meter" rx="2.5" ry="2.5" style="stroke:#000000;stroke-width:1.0;" width="533" x="688.5" y="377"/><ellipse cx="930.75" cy="391" fill="#FFFFFF" rx="9" ry="9" style="stroke:#000000;stroke-width:1.0;"/><path d="M933.7188,396.6406 Q933.1406,396.9375 932.5,397.0781 Q931.8594,397.2344 931.1563,397.2344 Q928.6563,397.2344 927.3281,395.5938 Q926.0156,393.9375 926.0156,390.8125 Q926.0156,387.6875 927.3281,386.0313 Q928.6563,384.375 931.1563,384.375 Q931.8594,384.375 932.5,384.5313 Q933.1563,384.6875 933.7188,384.9844 L933.7188,387.7031 Q933.0938,387.125 932.5,386.8594 Q931.9063,386.5781 931.2813,386.5781 Q929.9375,386.5781 929.25,387.6563 Q928.5625,388.7188 928.5625,390.8125 Q928.5625,392.9063 929.25,393.9844 Q929.9375,395.0469 931.2813,395.0469 Q931.9063,395.0469 932.5,394.7813 Q933.0938,394.5 933.7188,393.9219 L933.7188,396.6406 Z " fill="#000000"/><text fill="#000000" font-family="Verdana" font-size="14" lengthAdjust="spacing" textLength="41" x="948.25" y="395.8467">meter</text><line style="stroke:#000000;stroke-width:1.0;" x1="689.5" x2="1220.5" y1="405" y2="405"/><text fill="#000000" font-family="Verdana" font-size="14" lengthAdjust="spacing" textLength="108" x="694.5" y="421.9951">version: integer</text><text fill="#000000" font-family="Verdana" font-size="14" lengthAdjust="spacing" textLength="123" x="694.5" y="438.292">is_active: boolean</text><text fill="#000000" font-family="Verdana" font-size="14" lengthAdjust="spacing" textLength="177" x="694.5" y="454.5889">permission_tree_id: bigint</text><text fill="#000000" font-family="Verdana" font-size="14" lengthAdjust="spacing" textLength="91" x="694.5" y="470.8857">site_id: bigint</text><text fill="#000000" font-family="Verdana" font-size="14" lengthAdjust="spacing" textLength="216" x="694.5" y="487.1826">unit_of_measurement_id: bigint</text><text fill="#000000" font-family="Verdana" font-size="14" lengthAdjust="spacing" textLength="135" x="694.5" y="503.4795">is_paused: boolean</text><text fill="#000000" font-family="Verdana" font-size="14" lengthAdjust="spacing" textLength="343" x="694.5" y="519.7764">automatically_update_average_daily_rate: boolean</text><text fill="#000000" font-family="Verdana" font-size="14" lengthAdjust="spacing" textLength="326" x="694.5" y="536.0732">average_daily_rate_calculation_quantity: integer</text><text fill="#000000" font-family="Verdana" font-size="14" lengthAdjust="spacing" textLength="521" x="694.5" y="552.3701">average_daily_rate_calculation_unit: aom.average_daily_rate_calculation_unit</text><text fill="#000000" font-family="Verdana" font-size="14" lengthAdjust="spacing" textLength="169" x="694.5" y="568.667">last_read_on: timestamp</text><text fill="#000000" font-family="Verdana" font-size="14" lengthAdjust="spacing" textLength="174" x="694.5" y="584.9639">last_reset_on: timestamp</text><text fill="#000000" font-family="Verdana" font-size="14" lengthAdjust="spacing" textLength="245" x="694.5" y="601.2607">pmr_status: aom.meter_pmr_status</text><text fill="#000000" font-family="Verdana" font-size="14" lengthAdjust="spacing" textLength="252" x="694.5" y="617.5576">pmr_status_changed_on: timestamp</text><text fill="#000000" font-family="Verdana" font-size="14" lengthAdjust="spacing" textLength="75" x="694.5" y="633.8545">notes: text</text><text fill="#000000" font-family="Verdana" font-size="14" lengthAdjust="spacing" textLength="160" x="694.5" y="650.1514">created_on: timestamp</text><text fill="#000000" font-family="Verdana" font-size="14" lengthAdjust="spacing" textLength="180" x="694.5" y="666.4482">created_by_user_id: bigint</text><text fill="#000000" font-family="Verdana" font-size="14" lengthAdjust="spacing" textLength="166" x="694.5" y="682.7451">modified_on: timestamp</text><text fill="#000000" font-family="Verdana" font-size="14" lengthAdjust="spacing" textLength="186" x="694.5" y="699.042">modified_by_user_id: bigint</text><text fill="#000000" font-family="Verdana" font-size="14" lengthAdjust="spacing" textLength="107" x="694.5" y="715.3389">meter_id: bigint</text><line style="stroke:#000000;stroke-width:1.0;" x1="689.5" x2="1220.5" y1="722.6406" y2="722.6406"/><text fill="#000000" font-family="Verdana" font-size="14" lengthAdjust="spacing" textLength="122" x="694.5" y="739.6357">code: varchar(50)</text><text fill="#000000" font-family="Verdana" font-size="14" lengthAdjust="spacing" textLength="173" x="694.5" y="755.9326">description: varchar(100)</text><text fill="#000000" font-family="Verdana" font-size="14" lengthAdjust="spacing" textLength="223" x="694.5" y="772.2295">auto_reset_value: numeric(19,4)</text><text fill="#000000" font-family="Verdana" font-size="14" lengthAdjust="spacing" textLength="232" x="694.5" y="788.5264">average_daily_rate: numeric(19,4)</text><text fill="#000000" font-family="Verdana" font-size="14" lengthAdjust="spacing" textLength="239" x="694.5" y="804.8232">cumulative_reading: numeric(19,4)</text><text fill="#000000" font-family="Verdana" font-size="14" lengthAdjust="spacing" textLength="189" x="694.5" y="821.1201">last_reading: numeric(19,4)</text><text fill="#000000" font-family="Verdana" font-size="14" lengthAdjust="spacing" textLength="232" x="694.5" y="837.417">last_reset_reading: numeric(19,4)</text></g><!--class meter_attribute--><g id="elem_meter_attribute"><rect codeLine="55" fill="#FFFFFF" height="272.1563" id="meter_attribute" rx="2.5" ry="2.5" style="stroke:#000000;stroke-width:1.0;" width="276" x="275" y="28.5"/><ellipse cx="356.25" cy="42.5" fill="#FFFFFF" rx="9" ry="9" style="stroke:#000000;stroke-width:1.0;"/><path d="M359.2188,48.1406 Q358.6406,48.4375 358,48.5781 Q357.3594,48.7344 356.6563,48.7344 Q354.1563,48.7344 352.8281,47.0938 Q351.5156,45.4375 351.5156,42.3125 Q351.5156,39.1875 352.8281,37.5313 Q354.1563,35.875 356.6563,35.875 Q357.3594,35.875 358,36.0313 Q358.6563,36.1875 359.2188,36.4844 L359.2188,39.2031 Q358.5938,38.625 358,38.3594 Q357.4063,38.0781 356.7813,38.0781 Q355.4375,38.0781 354.75,39.1563 Q354.0625,40.2188 354.0625,42.3125 Q354.0625,44.4063 354.75,45.4844 Q355.4375,46.5469 356.7813,46.5469 Q357.4063,46.5469 358,46.2813 Q358.5938,46 359.2188,45.4219 L359.2188,48.1406 Z " fill="#000000"/><text fill="#000000" font-family="Verdana" font-size="14" lengthAdjust="spacing" textLength="106" x="373.75" y="47.3467">meter_attribute</text><line style="stroke:#000000;stroke-width:1.0;" x1="276" x2="550" y1="56.5" y2="56.5"/><text fill="#000000" font-family="Verdana" font-size="14" lengthAdjust="spacing" textLength="107" x="281" y="73.4951">meter_id: bigint</text><text fill="#000000" font-family="Verdana" font-size="14" lengthAdjust="spacing" textLength="108" x="281" y="89.792">version: integer</text><text fill="#000000" font-family="Verdana" font-size="14" lengthAdjust="spacing" textLength="123" x="281" y="106.0889">is_active: boolean</text><text fill="#000000" font-family="Verdana" font-size="14" lengthAdjust="spacing" textLength="189" x="281" y="122.3857">sequence_number: integer</text><text fill="#000000" font-family="Verdana" font-size="14" lengthAdjust="spacing" textLength="177" x="281" y="138.6826">permission_tree_id: bigint</text><text fill="#000000" font-family="Verdana" font-size="14" lengthAdjust="spacing" textLength="124" x="281" y="154.9795">attribute_id: bigint</text><text fill="#000000" font-family="Verdana" font-size="14" lengthAdjust="spacing" textLength="167" x="281" y="171.2764">attribute_value_id: bigint</text><text fill="#000000" font-family="Verdana" font-size="14" lengthAdjust="spacing" textLength="264" x="281" y="187.5732">attribute_value: system.dynamic_value</text><text fill="#000000" font-family="Verdana" font-size="14" lengthAdjust="spacing" textLength="75" x="281" y="203.8701">notes: text</text><text fill="#000000" font-family="Verdana" font-size="14" lengthAdjust="spacing" textLength="160" x="281" y="220.167">created_on: timestamp</text><text fill="#000000" font-family="Verdana" font-size="14" lengthAdjust="spacing" textLength="180" x="281" y="236.4639">created_by_user_id: bigint</text><text fill="#000000" font-family="Verdana" font-size="14" lengthAdjust="spacing" textLength="166" x="281" y="252.7607">modified_on: timestamp</text><text fill="#000000" font-family="Verdana" font-size="14" lengthAdjust="spacing" textLength="186" x="281" y="269.0576">modified_by_user_id: bigint</text><text fill="#000000" font-family="Verdana" font-size="14" lengthAdjust="spacing" textLength="172" x="281" y="285.3545">meter_attribute_id: bigint</text><line style="stroke:#000000;stroke-width:1.0;" x1="276" x2="550" y1="292.6563" y2="292.6563"/></g><!--class meter_reading--><g id="elem_meter_reading"><rect codeLine="71" fill="#FFFFFF" height="272.1563" id="meter_reading" rx="2.5" ry="2.5" style="stroke:#000000;stroke-width:1.0;" width="308" x="586" y="28.5"/><ellipse cx="686.25" cy="42.5" fill="#FFFFFF" rx="9" ry="9" style="stroke:#000000;stroke-width:1.0;"/><path d="M689.2188,48.1406 Q688.6406,48.4375 688,48.5781 Q687.3594,48.7344 686.6563,48.7344 Q684.1563,48.7344 682.8281,47.0938 Q681.5156,45.4375 681.5156,42.3125 Q681.5156,39.1875 682.8281,37.5313 Q684.1563,35.875 686.6563,35.875 Q687.3594,35.875 688,36.0313 Q688.6563,36.1875 689.2188,36.4844 L689.2188,39.2031 Q688.5938,38.625 688,38.3594 Q687.4063,38.0781 686.7813,38.0781 Q685.4375,38.0781 684.75,39.1563 Q684.0625,40.2188 684.0625,42.3125 Q684.0625,44.4063 684.75,45.4844 Q685.4375,46.5469 686.7813,46.5469 Q687.4063,46.5469 688,46.2813 Q688.5938,46 689.2188,45.4219 L689.2188,48.1406 Z " fill="#000000"/><text fill="#000000" font-family="Verdana" font-size="14" lengthAdjust="spacing" textLength="100" x="703.75" y="47.3467">meter_reading</text><line style="stroke:#000000;stroke-width:1.0;" x1="587" x2="893" y1="56.5" y2="56.5"/><text fill="#000000" font-family="Verdana" font-size="14" lengthAdjust="spacing" textLength="107" x="592" y="73.4951">meter_id: bigint</text><text fill="#000000" font-family="Verdana" font-size="14" lengthAdjust="spacing" textLength="108" x="592" y="89.792">version: integer</text><text fill="#000000" font-family="Verdana" font-size="14" lengthAdjust="spacing" textLength="159" x="592" y="106.0889">reading_on: timestamp</text><text fill="#000000" font-family="Verdana" font-size="14" lengthAdjust="spacing" textLength="278" x="592" y="122.3857">is_asset_consumption_reading: boolean</text><text fill="#000000" font-family="Verdana" font-size="14" lengthAdjust="spacing" textLength="296" x="592" y="138.6826">reset_type: aom.meter_reading_reset_type</text><text fill="#000000" font-family="Verdana" font-size="14" lengthAdjust="spacing" textLength="75" x="592" y="154.9795">notes: text</text><text fill="#000000" font-family="Verdana" font-size="14" lengthAdjust="spacing" textLength="160" x="592" y="171.2764">created_on: timestamp</text><text fill="#000000" font-family="Verdana" font-size="14" lengthAdjust="spacing" textLength="180" x="592" y="187.5732">created_by_user_id: bigint</text><text fill="#000000" font-family="Verdana" font-size="14" lengthAdjust="spacing" textLength="166" x="592" y="203.8701">modified_on: timestamp</text><text fill="#000000" font-family="Verdana" font-size="14" lengthAdjust="spacing" textLength="186" x="592" y="220.167">modified_by_user_id: bigint</text><text fill="#000000" font-family="Verdana" font-size="14" lengthAdjust="spacing" textLength="166" x="592" y="236.4639">meter_reading_id: bigint</text><line style="stroke:#000000;stroke-width:1.0;" x1="587" x2="893" y1="243.7656" y2="243.7656"/><text fill="#000000" font-family="Verdana" font-size="14" lengthAdjust="spacing" textLength="158" x="592" y="260.7607">reading: numeric(19,4)</text><text fill="#000000" font-family="Verdana" font-size="14" lengthAdjust="spacing" textLength="239" x="592" y="277.0576">cumulative_reading: numeric(19,4)</text><text fill="#000000" font-family="Verdana" font-size="14" lengthAdjust="spacing" textLength="185" x="592" y="293.3545">reset_value: numeric(19,4)</text></g><!--class meter_udf_value--><g id="elem_meter_udf_value"><rect codeLine="87" fill="#FFFFFF" height="60.2969" id="meter_udf_value" rx="2.5" ry="2.5" style="stroke:#000000;stroke-width:1.0;" width="141" x="929.5" y="134.5"/><ellipse cx="942.5" cy="148.5" fill="#FFFFFF" rx="9" ry="9" style="stroke:#000000;stroke-width:1.0;"/><path d="M945.4688,154.1406 Q944.8906,154.4375 944.25,154.5781 Q943.6094,154.7344 942.9063,154.7344 Q940.4063,154.7344 939.0781,153.0938 Q937.7656,151.4375 937.7656,148.3125 Q937.7656,145.1875 939.0781,143.5313 Q940.4063,141.875 942.9063,141.875 Q943.6094,141.875 944.25,142.0313 Q944.9063,142.1875 945.4688,142.4844 L945.4688,145.2031 Q944.8438,144.625 944.25,144.3594 Q943.6563,144.0781 943.0313,144.0781 Q941.6875,144.0781 941,145.1563 Q940.3125,146.2188 940.3125,148.3125 Q940.3125,150.4063 941,151.4844 Q941.6875,152.5469 943.0313,152.5469 Q943.6563,152.5469 944.25,152.2813 Q944.8438,152 945.4688,151.4219 L945.4688,154.1406 Z " fill="#000000"/><text fill="#000000" font-family="Verdana" font-size="14" lengthAdjust="spacing" textLength="113" x="954.5" y="153.3467">meter_udf_value</text><line style="stroke:#000000;stroke-width:1.0;" x1="930.5" x2="1069.5" y1="162.5" y2="162.5"/><text fill="#000000" font-family="Verdana" font-size="14" lengthAdjust="spacing" textLength="107" x="935.5" y="179.4951">meter_id: bigint</text><line style="stroke:#000000;stroke-width:1.0;" x1="930.5" x2="1069.5" y1="186.7969" y2="186.7969"/></g><!--class predicted_meter_reading--><g id="elem_predicted_meter_reading"><rect codeLine="90" fill="#FFFFFF" height="158.0781" id="predicted_meter_reading" rx="2.5" ry="2.5" style="stroke:#000000;stroke-width:1.0;" width="251" x="1105.5" y="85.5"/><ellipse cx="1141" cy="99.5" fill="#FFFFFF" rx="9" ry="9" style="stroke:#000000;stroke-width:1.0;"/><path d="M1143.9688,105.1406 Q1143.3906,105.4375 1142.75,105.5781 Q1142.1094,105.7344 1141.4063,105.7344 Q1138.9063,105.7344 1137.5781,104.0938 Q1136.2656,102.4375 1136.2656,99.3125 Q1136.2656,96.1875 1137.5781,94.5313 Q1138.9063,92.875 1141.4063,92.875 Q1142.1094,92.875 1142.75,93.0313 Q1143.4063,93.1875 1143.9688,93.4844 L1143.9688,96.2031 Q1143.3438,95.625 1142.75,95.3594 Q1142.1563,95.0781 1141.5313,95.0781 Q1140.1875,95.0781 1139.5,96.1563 Q1138.8125,97.2188 1138.8125,99.3125 Q1138.8125,101.4063 1139.5,102.4844 Q1140.1875,103.5469 1141.5313,103.5469 Q1142.1563,103.5469 1142.75,103.2813 Q1143.3438,103 1143.9688,102.4219 L1143.9688,105.1406 Z " fill="#000000"/><text fill="#000000" font-family="Verdana" font-size="14" lengthAdjust="spacing" textLength="173" x="1158" y="104.3467">predicted_meter_reading</text><line style="stroke:#000000;stroke-width:1.0;" x1="1106.5" x2="1355.5" y1="113.5" y2="113.5"/><text fill="#000000" font-family="Verdana" font-size="14" lengthAdjust="spacing" textLength="108" x="1111.5" y="130.4951">version: integer</text><text fill="#000000" font-family="Verdana" font-size="14" lengthAdjust="spacing" textLength="107" x="1111.5" y="146.792">meter_id: bigint</text><text fill="#000000" font-family="Verdana" font-size="14" lengthAdjust="spacing" textLength="117" x="1111.5" y="163.0889">reading_on: date</text><text fill="#000000" font-family="Verdana" font-size="14" lengthAdjust="spacing" textLength="160" x="1111.5" y="179.3857">created_on: timestamp</text><text fill="#000000" font-family="Verdana" font-size="14" lengthAdjust="spacing" textLength="180" x="1111.5" y="195.6826">created_by_user_id: bigint</text><text fill="#000000" font-family="Verdana" font-size="14" lengthAdjust="spacing" textLength="239" x="1111.5" y="211.9795">predicted_meter_reading_id: bigint</text><line style="stroke:#000000;stroke-width:1.0;" x1="1106.5" x2="1355.5" y1="219.2813" y2="219.2813"/><text fill="#000000" font-family="Verdana" font-size="14" lengthAdjust="spacing" textLength="158" x="1111.5" y="236.2764">reading: numeric(19,4)</text></g><!--class time_loss_category--><g id="elem_time_loss_category"><rect codeLine="99" fill="#FFFFFF" height="239.5625" id="time_loss_category" rx="2.5" ry="2.5" style="stroke:#000000;stroke-width:1.0;" width="210" x="1357" y="491"/><ellipse cx="1392.5" cy="505" fill="#FFFFFF" rx="9" ry="9" style="stroke:#000000;stroke-width:1.0;"/><path d="M1395.4688,510.6406 Q1394.8906,510.9375 1394.25,511.0781 Q1393.6094,511.2344 1392.9063,511.2344 Q1390.4063,511.2344 1389.0781,509.5938 Q1387.7656,507.9375 1387.7656,504.8125 Q1387.7656,501.6875 1389.0781,500.0313 Q1390.4063,498.375 1392.9063,498.375 Q1393.6094,498.375 1394.25,498.5313 Q1394.9063,498.6875 1395.4688,498.9844 L1395.4688,501.7031 Q1394.8438,501.125 1394.25,500.8594 Q1393.6563,500.5781 1393.0313,500.5781 Q1391.6875,500.5781 1391,501.6563 Q1390.3125,502.7188 1390.3125,504.8125 Q1390.3125,506.9063 1391,507.9844 Q1391.6875,509.0469 1393.0313,509.0469 Q1393.6563,509.0469 1394.25,508.7813 Q1394.8438,508.5 1395.4688,507.9219 L1395.4688,510.6406 Z " fill="#000000"/><text fill="#000000" font-family="Verdana" font-size="14" lengthAdjust="spacing" textLength="132" x="1409.5" y="509.8467">time_loss_category</text><line style="stroke:#000000;stroke-width:1.0;" x1="1358" x2="1566" y1="519" y2="519"/><text fill="#000000" font-family="Verdana" font-size="14" lengthAdjust="spacing" textLength="108" x="1363" y="535.9951">version: integer</text><text fill="#000000" font-family="Verdana" font-size="14" lengthAdjust="spacing" textLength="177" x="1363" y="552.292">permission_tree_id: bigint</text><text fill="#000000" font-family="Verdana" font-size="14" lengthAdjust="spacing" textLength="123" x="1363" y="568.5889">is_active: boolean</text><text fill="#000000" font-family="Verdana" font-size="14" lengthAdjust="spacing" textLength="189" x="1363" y="584.8857">sequence_number: integer</text><text fill="#000000" font-family="Verdana" font-size="14" lengthAdjust="spacing" textLength="75" x="1363" y="601.1826">notes: text</text><text fill="#000000" font-family="Verdana" font-size="14" lengthAdjust="spacing" textLength="160" x="1363" y="617.4795">created_on: timestamp</text><text fill="#000000" font-family="Verdana" font-size="14" lengthAdjust="spacing" textLength="180" x="1363" y="633.7764">created_by_user_id: bigint</text><text fill="#000000" font-family="Verdana" font-size="14" lengthAdjust="spacing" textLength="166" x="1363" y="650.0732">modified_on: timestamp</text><text fill="#000000" font-family="Verdana" font-size="14" lengthAdjust="spacing" textLength="186" x="1363" y="666.3701">modified_by_user_id: bigint</text><text fill="#000000" font-family="Verdana" font-size="14" lengthAdjust="spacing" textLength="198" x="1363" y="682.667">time_loss_category_id: bigint</text><line style="stroke:#000000;stroke-width:1.0;" x1="1358" x2="1566" y1="689.9688" y2="689.9688"/><text fill="#000000" font-family="Verdana" font-size="14" lengthAdjust="spacing" textLength="122" x="1363" y="706.9639">code: varchar(50)</text><text fill="#000000" font-family="Verdana" font-size="14" lengthAdjust="spacing" textLength="173" x="1363" y="723.2607">description: varchar(100)</text></g><!--class time_loss_reason--><g id="elem_time_loss_reason"><rect codeLine="113" fill="#FFFFFF" height="304.75" id="time_loss_reason" rx="2.5" ry="2.5" style="stroke:#000000;stroke-width:1.0;" width="356" x="1481" y="12"/><ellipse cx="1595.25" cy="26" fill="#FFFFFF" rx="9" ry="9" style="stroke:#000000;stroke-width:1.0;"/><path d="M1598.2188,31.6406 Q1597.6406,31.9375 1597,32.0781 Q1596.3594,32.2344 1595.6563,32.2344 Q1593.1563,32.2344 1591.8281,30.5938 Q1590.5156,28.9375 1590.5156,25.8125 Q1590.5156,22.6875 1591.8281,21.0313 Q1593.1563,19.375 1595.6563,19.375 Q1596.3594,19.375 1597,19.5313 Q1597.6563,19.6875 1598.2188,19.9844 L1598.2188,22.7031 Q1597.5938,22.125 1597,21.8594 Q1596.4063,21.5781 1595.7813,21.5781 Q1594.4375,21.5781 1593.75,22.6563 Q1593.0625,23.7188 1593.0625,25.8125 Q1593.0625,27.9063 1593.75,28.9844 Q1594.4375,30.0469 1595.7813,30.0469 Q1596.4063,30.0469 1597,29.7813 Q1597.5938,29.5 1598.2188,28.9219 L1598.2188,31.6406 Z " fill="#000000"/><text fill="#000000" font-family="Verdana" font-size="14" lengthAdjust="spacing" textLength="120" x="1612.75" y="30.8467">time_loss_reason</text><line style="stroke:#000000;stroke-width:1.0;" x1="1482" x2="1836" y1="40" y2="40"/><text fill="#000000" font-family="Verdana" font-size="14" lengthAdjust="spacing" textLength="108" x="1487" y="56.9951">version: integer</text><text fill="#000000" font-family="Verdana" font-size="14" lengthAdjust="spacing" textLength="123" x="1487" y="73.292">is_active: boolean</text><text fill="#000000" font-family="Verdana" font-size="14" lengthAdjust="spacing" textLength="177" x="1487" y="89.5889">permission_tree_id: bigint</text><text fill="#000000" font-family="Verdana" font-size="14" lengthAdjust="spacing" textLength="189" x="1487" y="105.8857">sequence_number: integer</text><text fill="#000000" font-family="Verdana" font-size="14" lengthAdjust="spacing" textLength="344" x="1487" y="122.1826">classification: aom.time_loss_reason_classification</text><text fill="#000000" font-family="Verdana" font-size="14" lengthAdjust="spacing" textLength="174" x="1487" y="138.4795">allowed_duration: interval</text><text fill="#000000" font-family="Verdana" font-size="14" lengthAdjust="spacing" textLength="198" x="1487" y="154.7764">time_loss_category_id: bigint</text><text fill="#000000" font-family="Verdana" font-size="14" lengthAdjust="spacing" textLength="168" x="1487" y="171.0732">time_loss_type_id: bigint</text><text fill="#000000" font-family="Verdana" font-size="14" lengthAdjust="spacing" textLength="75" x="1487" y="187.3701">notes: text</text><text fill="#000000" font-family="Verdana" font-size="14" lengthAdjust="spacing" textLength="160" x="1487" y="203.667">created_on: timestamp</text><text fill="#000000" font-family="Verdana" font-size="14" lengthAdjust="spacing" textLength="180" x="1487" y="219.9639">created_by_user_id: bigint</text><text fill="#000000" font-family="Verdana" font-size="14" lengthAdjust="spacing" textLength="166" x="1487" y="236.2607">modified_on: timestamp</text><text fill="#000000" font-family="Verdana" font-size="14" lengthAdjust="spacing" textLength="186" x="1487" y="252.5576">modified_by_user_id: bigint</text><text fill="#000000" font-family="Verdana" font-size="14" lengthAdjust="spacing" textLength="186" x="1487" y="268.8545">time_loss_reason_id: bigint</text><line style="stroke:#000000;stroke-width:1.0;" x1="1482" x2="1836" y1="276.1563" y2="276.1563"/><text fill="#000000" font-family="Verdana" font-size="14" lengthAdjust="spacing" textLength="122" x="1487" y="293.1514">code: varchar(50)</text><text fill="#000000" font-family="Verdana" font-size="14" lengthAdjust="spacing" textLength="173" x="1487" y="309.4482">description: varchar(100)</text></g><!--class time_loss_type--><g id="elem_time_loss_type"><rect codeLine="131" fill="#FFFFFF" height="239.5625" id="time_loss_type" rx="2.5" ry="2.5" style="stroke:#000000;stroke-width:1.0;" width="201" x="1602.5" y="491"/><ellipse cx="1648.25" cy="505" fill="#FFFFFF" rx="9" ry="9" style="stroke:#000000;stroke-width:1.0;"/><path d="M1651.2188,510.6406 Q1650.6406,510.9375 1650,511.0781 Q1649.3594,511.2344 1648.6563,511.2344 Q1646.1563,511.2344 1644.8281,509.5938 Q1643.5156,507.9375 1643.5156,504.8125 Q1643.5156,501.6875 1644.8281,500.0313 Q1646.1563,498.375 1648.6563,498.375 Q1649.3594,498.375 1650,498.5313 Q1650.6563,498.6875 1651.2188,498.9844 L1651.2188,501.7031 Q1650.5938,501.125 1650,500.8594 Q1649.4063,500.5781 1648.7813,500.5781 Q1647.4375,500.5781 1646.75,501.6563 Q1646.0625,502.7188 1646.0625,504.8125 Q1646.0625,506.9063 1646.75,507.9844 Q1647.4375,509.0469 1648.7813,509.0469 Q1649.4063,509.0469 1650,508.7813 Q1650.5938,508.5 1651.2188,507.9219 L1651.2188,510.6406 Z " fill="#000000"/><text fill="#000000" font-family="Verdana" font-size="14" lengthAdjust="spacing" textLength="102" x="1665.75" y="509.8467">time_loss_type</text><line style="stroke:#000000;stroke-width:1.0;" x1="1603.5" x2="1802.5" y1="519" y2="519"/><text fill="#000000" font-family="Verdana" font-size="14" lengthAdjust="spacing" textLength="108" x="1608.5" y="535.9951">version: integer</text><text fill="#000000" font-family="Verdana" font-size="14" lengthAdjust="spacing" textLength="177" x="1608.5" y="552.292">permission_tree_id: bigint</text><text fill="#000000" font-family="Verdana" font-size="14" lengthAdjust="spacing" textLength="123" x="1608.5" y="568.5889">is_active: boolean</text><text fill="#000000" font-family="Verdana" font-size="14" lengthAdjust="spacing" textLength="189" x="1608.5" y="584.8857">sequence_number: integer</text><text fill="#000000" font-family="Verdana" font-size="14" lengthAdjust="spacing" textLength="75" x="1608.5" y="601.1826">notes: text</text><text fill="#000000" font-family="Verdana" font-size="14" lengthAdjust="spacing" textLength="160" x="1608.5" y="617.4795">created_on: timestamp</text><text fill="#000000" font-family="Verdana" font-size="14" lengthAdjust="spacing" textLength="180" x="1608.5" y="633.7764">created_by_user_id: bigint</text><text fill="#000000" font-family="Verdana" font-size="14" lengthAdjust="spacing" textLength="166" x="1608.5" y="650.0732">modified_on: timestamp</text><text fill="#000000" font-family="Verdana" font-size="14" lengthAdjust="spacing" textLength="186" x="1608.5" y="666.3701">modified_by_user_id: bigint</text><text fill="#000000" font-family="Verdana" font-size="14" lengthAdjust="spacing" textLength="168" x="1608.5" y="682.667">time_loss_type_id: bigint</text><line style="stroke:#000000;stroke-width:1.0;" x1="1603.5" x2="1802.5" y1="689.9688" y2="689.9688"/><text fill="#000000" font-family="Verdana" font-size="14" lengthAdjust="spacing" textLength="122" x="1608.5" y="706.9639">code: varchar(50)</text><text fill="#000000" font-family="Verdana" font-size="14" lengthAdjust="spacing" textLength="173" x="1608.5" y="723.2607">description: varchar(100)</text></g><!--link meter to meter--><g id="link_meter_meter"><path codeLine="146" d="M1182.83,376.77 C1182.83,358.53 1182.83,347 1182.83,347 C1182.83,347 1289,347 1289,347 C1289,347 1289,863 1289,863 C1289,863 955,863 955,863 C955,863 955,861.23 955,861.23 " fill="none" id="meter-to-meter" style="stroke:#595959;stroke-width:1.0;"/><polygon fill="none" points="948,865.28,955,845.28,962,865.28,948,865.28" style="stroke:#595959;stroke-width:1.0;"/><text fill="#000000" font-family="Verdana" font-size="13" lengthAdjust="spacing" textLength="57" x="1277.75" y="722.9869">meter_id</text></g><!--link meter_attribute to meter--><g id="link_meter_attribute_meter"><path codeLine="147" d="M413,300.59 C413,431.92 413,611 413,611 C413,611 668.37,611 668.37,611 " fill="none" id="meter_attribute-to-meter" style="stroke:#595959;stroke-width:1.0;"/><polygon fill="none" points="668.37,604,688.37,611,668.37,618,668.37,604" style="stroke:#595959;stroke-width:1.0;"/><text fill="#000000" font-family="Verdana" font-size="13" lengthAdjust="spacing" textLength="57" x="355" y="579.5469">meter_id</text></g><!--link meter_reading to meter--><g id="link_meter_reading_meter"><path codeLine="148" d="M791.25,300.59 C791.25,300.59 791.25,356.76 791.25,356.76 " fill="none" id="meter_reading-to-meter" style="stroke:#595959;stroke-width:1.0;"/><polygon fill="none" points="798.25,356.76,791.25,376.76,784.25,356.76,798.25,356.76" style="stroke:#595959;stroke-width:1.0;"/><text fill="#000000" font-family="Verdana" font-size="13" lengthAdjust="spacing" textLength="57" x="733.25" y="324.7369">meter_id</text></g><!--link meter_udf_value to meter--><g id="link_meter_udf_value_meter"><path codeLine="149" d="M1000,194.84 C1000,194.84 1000,356.99 1000,356.99 " fill="none" id="meter_udf_value-to-meter" style="stroke:#595959;stroke-width:1.0;"/><polygon fill="none" points="1007,356.99,1000,376.99,993,356.99,1007,356.99" style="stroke:#595959;stroke-width:1.0;"/><text fill="#000000" font-family="Verdana" font-size="13" lengthAdjust="spacing" textLength="57" x="942" y="271.9769">meter_id</text></g><!--link predicted_meter_reading to meter--><g id="link_predicted_meter_reading_meter"><path codeLine="150" d="M1144.17,243.55 C1144.17,243.55 1144.17,356.99 1144.17,356.99 " fill="none" id="predicted_meter_reading-to-meter" style="stroke:#595959;stroke-width:1.0;"/><polygon fill="none" points="1151.17,356.99,1144.17,376.99,1137.17,356.99,1151.17,356.99" style="stroke:#595959;stroke-width:1.0;"/><text fill="#000000" font-family="Verdana" font-size="13" lengthAdjust="spacing" textLength="57" x="1086.17" y="296.3369">meter_id</text></g><!--link time_loss_reason to time_loss_category--><g id="link_time_loss_reason_time_loss_category"><path codeLine="151" d="M1524,317.22 C1524,317.22 1524,470.77 1524,470.77 " fill="none" id="time_loss_reason-to-time_loss_category" style="stroke:#595959;stroke-width:1.0;"/><polygon fill="none" points="1531,470.77,1524,490.77,1517,470.77,1531,470.77" style="stroke:#595959;stroke-width:1.0;"/><text fill="#000000" font-family="Verdana" font-size="13" lengthAdjust="spacing" textLength="142" x="1381" y="390.0569">time_loss_category_id</text></g><!--link time_loss_reason to time_loss_type--><g id="link_time_loss_reason_time_loss_type"><path codeLine="152" d="M1703,317.22 C1703,317.22 1703,470.77 1703,470.77 " fill="none" id="time_loss_reason-to-time_loss_type" style="stroke:#595959;stroke-width:1.0;"/><polygon fill="none" points="1710,470.77,1703,490.77,1696,470.77,1710,470.77" style="stroke:#595959;stroke-width:1.0;"/><text fill="#000000" font-family="Verdana" font-size="13" lengthAdjust="spacing" textLength="114" x="1588" y="390.0569">time_loss_type_id</text></g><!--SRC=[xLVDJjmm4BxdAGozW0G8f78WhrArriGP5gkn7Upnjb75kzVE3xj9dB0Bg73excLt_ZppVJFZv8GUK26hAv0w8rCpCgmmH4QnKbeK98tEt4-fQx2WM2KrKbCZCvOUJ9Pb9s_p5nKunuJHpYieAcH_CiRO5gqBVZcJcd23Dig4AJ5dMx3Y0UpPxVLvA_JMeXODbsNE2ha9zb5SeXDMrjJ665nkhZiVwJY4jBOXMc5CXQ2Zj4Qhf8kdShA8au1EqbJajIHUMob27EqLXbzdDtSNNy-VbUQUAmJdRG18qyHT6qANCyBVxLzX4GXB7XCcgT0Hg7fVKJJSExIJACgKybwc_9urQSSTulkAfvuFXOJsI2h-6UQhi8Q3QWZrbgE3m9FX5XqItqBbKun54mKa1LHLGAmk0-eSGlMmGLw2348RHEEmCpKFxi9N457WZnuqIMf6sBtW4olC6HXrTO1XEbwYEE5LwxV5W0AKKcyIHe5vEaGzxxLU5U5Tqot7hfNbmOEywsfl-u_lf6CR7bfBRr9D_y53rQMzD4ySYAmiFFLBRcQzC6tfsN7uwCFcGnx0BD2EFDRdwZcDHNax8-lQdBd64Qghij6WfEYaduQ3P8rZDlfkF8wBvHRkDOaw3vczoB6BCzBjvNQBxiptQ5zVOfqstg_xSpIajjD-6fw6r1PPykLzL-q2JuDrRR6K8kQPO3V5P8hnmzYDDyCR45l8D5LKZCehuyB62m4tnZRBzQpFV7g777-FhssT3sweELZha8OidD4V_f2p0cYRSIXPG7TUdEXf_dnir6xggZA_0aobjxrZZ6d35BqCqyWWRehFzTGwgtwLuVOzu__0l0pcbEYdBElU01AVoszVRk_Yzw9zvVj- -QFVfGdRd9qEQ_Oqcpu3lLV4OTE_NuwxE-Vj4PVkfTT7d6smjHmJDyWGCRa8NXs-dRNzX6VTTVeN]--></g></svg>