<?xml version="1.0" encoding="UTF-8" standalone="no"?><svg xmlns="http://www.w3.org/2000/svg" xmlns:xlink="http://www.w3.org/1999/xlink" contentStyleType="text/css" height="639px" preserveAspectRatio="none" style="width:1122px;height:639px;background:#FFFFFF;" version="1.1" viewBox="0 0 1122 639" width="1122px" zoomAndPan="magnify"><defs/><g><!--class property--><g id="elem_property"><rect codeLine="5" fill="#FFFFFF" height="76.5938" id="property" rx="2.5" ry="2.5" style="stroke:#000000;stroke-width:1.0;" width="143" x="654.5" y="482"/><ellipse cx="693.25" cy="496" fill="#FFFFFF" rx="9" ry="9" style="stroke:#000000;stroke-width:1.0;"/><path d="M696.2188,501.6406 Q695.6406,501.9375 695,502.0781 Q694.3594,502.2344 693.6563,502.2344 Q691.1563,502.2344 689.8281,500.5938 Q688.5156,498.9375 688.5156,495.8125 Q688.5156,492.6875 689.8281,491.0313 Q691.1563,489.375 693.6563,489.375 Q694.3594,489.375 695,489.5313 Q695.6563,489.6875 696.2188,489.9844 L696.2188,492.7031 Q695.5938,492.125 695,491.8594 Q694.4063,491.5781 693.7813,491.5781 Q692.4375,491.5781 691.75,492.6563 Q691.0625,493.7188 691.0625,495.8125 Q691.0625,497.9063 691.75,498.9844 Q692.4375,500.0469 693.7813,500.0469 Q694.4063,500.0469 695,499.7813 Q695.5938,499.5 696.2188,498.9219 L696.2188,501.6406 Z " fill="#000000"/><text fill="#000000" font-family="Verdana" font-size="14" lengthAdjust="spacing" textLength="58" x="710.75" y="500.8467">property</text><line style="stroke:#000000;stroke-width:1.0;" x1="655.5" x2="796.5" y1="510" y2="510"/><text fill="#000000" font-family="Verdana" font-size="14" lengthAdjust="spacing" textLength="131" x="660.5" y="526.9951">property_path: text</text><text fill="#000000" font-family="Verdana" font-size="14" lengthAdjust="spacing" textLength="124" x="660.5" y="543.292">property_id: bigint</text><line style="stroke:#000000;stroke-width:1.0;" x1="655.5" x2="796.5" y1="550.5938" y2="550.5938"/></g><!--class record_change--><g id="elem_record_change"><rect codeLine="9" fill="#FFFFFF" height="223.2656" id="record_change" rx="2.5" ry="2.5" style="stroke:#000000;stroke-width:1.0;" width="282" x="833" y="409"/><ellipse cx="918.25" cy="423" fill="#FFFFFF" rx="9" ry="9" style="stroke:#000000;stroke-width:1.0;"/><path d="M921.2188,428.6406 Q920.6406,428.9375 920,429.0781 Q919.3594,429.2344 918.6563,429.2344 Q916.1563,429.2344 914.8281,427.5938 Q913.5156,425.9375 913.5156,422.8125 Q913.5156,419.6875 914.8281,418.0313 Q916.1563,416.375 918.6563,416.375 Q919.3594,416.375 920,416.5313 Q920.6563,416.6875 921.2188,416.9844 L921.2188,419.7031 Q920.5938,419.125 920,418.8594 Q919.4063,418.5781 918.7813,418.5781 Q917.4375,418.5781 916.75,419.6563 Q916.0625,420.7188 916.0625,422.8125 Q916.0625,424.9063 916.75,425.9844 Q917.4375,427.0469 918.7813,427.0469 Q919.4063,427.0469 920,426.7813 Q920.5938,426.5 921.2188,425.9219 L921.2188,428.6406 Z " fill="#000000"/><text fill="#000000" font-family="Verdana" font-size="14" lengthAdjust="spacing" textLength="104" x="935.75" y="427.8467">record_change</text><line style="stroke:#000000;stroke-width:1.0;" x1="834" x2="1114" y1="437" y2="437"/><text fill="#000000" font-family="Verdana" font-size="14" lengthAdjust="spacing" textLength="89" x="839" y="453.9951">trace_id: text</text><text fill="#000000" font-family="Verdana" font-size="14" lengthAdjust="spacing" textLength="168" x="839" y="470.292">changed_on: timestamp</text><text fill="#000000" font-family="Verdana" font-size="14" lengthAdjust="spacing" textLength="172" x="839" y="486.5889">persisted_on: timestamp</text><text fill="#000000" font-family="Verdana" font-size="14" lengthAdjust="spacing" textLength="97" x="839" y="502.8857">user_id: bigint</text><text fill="#000000" font-family="Verdana" font-size="14" lengthAdjust="spacing" textLength="104" x="839" y="519.1826">entity_id: bigint</text><text fill="#000000" font-family="Verdana" font-size="14" lengthAdjust="spacing" textLength="213" x="839" y="535.4795">entity_type: system.entity_type</text><text fill="#000000" font-family="Verdana" font-size="14" lengthAdjust="spacing" textLength="153" x="839" y="551.7764">entity_version: integer</text><text fill="#000000" font-family="Verdana" font-size="14" lengthAdjust="spacing" textLength="270" x="839" y="568.0732">entity_change_type: audit.change_type</text><text fill="#000000" font-family="Verdana" font-size="14" lengthAdjust="spacing" textLength="156" x="839" y="584.3701">request_types: bigint[]</text><text fill="#000000" font-family="Verdana" font-size="14" lengthAdjust="spacing" textLength="150" x="839" y="600.667">request_step_id: uuid</text><text fill="#000000" font-family="Verdana" font-size="14" lengthAdjust="spacing" textLength="170" x="839" y="616.9639">record_change_id: bigint</text><line style="stroke:#000000;stroke-width:1.0;" x1="834" x2="1114" y1="624.2656" y2="624.2656"/></g><!--class record_change_user--><g id="elem_record_change_user"><rect codeLine="22" fill="#FFFFFF" height="109.1875" id="record_change_user" rx="2.5" ry="2.5" style="stroke:#000000;stroke-width:1.0;" width="173" x="66.5" y="126"/><ellipse cx="80.85" cy="140" fill="#FFFFFF" rx="9" ry="9" style="stroke:#000000;stroke-width:1.0;"/><path d="M83.8188,145.6406 Q83.2406,145.9375 82.6,146.0781 Q81.9594,146.2344 81.2563,146.2344 Q78.7563,146.2344 77.4281,144.5938 Q76.1156,142.9375 76.1156,139.8125 Q76.1156,136.6875 77.4281,135.0313 Q78.7563,133.375 81.2563,133.375 Q81.9594,133.375 82.6,133.5313 Q83.2563,133.6875 83.8188,133.9844 L83.8188,136.7031 Q83.1938,136.125 82.6,135.8594 Q82.0063,135.5781 81.3813,135.5781 Q80.0375,135.5781 79.35,136.6563 Q78.6625,137.7188 78.6625,139.8125 Q78.6625,141.9063 79.35,142.9844 Q80.0375,144.0469 81.3813,144.0469 Q82.0063,144.0469 82.6,143.7813 Q83.1938,143.5 83.8188,142.9219 L83.8188,145.6406 Z " fill="#000000"/><text fill="#000000" font-family="Verdana" font-size="14" lengthAdjust="spacing" textLength="142" x="93.15" y="144.8467">record_change_user</text><line style="stroke:#000000;stroke-width:1.0;" x1="67.5" x2="238.5" y1="154" y2="154"/><text fill="#000000" font-family="Verdana" font-size="14" lengthAdjust="spacing" textLength="128" x="72.5" y="170.9951">primary_email: text</text><text fill="#000000" font-family="Verdana" font-size="14" lengthAdjust="spacing" textLength="97" x="72.5" y="187.292">user_id: bigint</text><line style="stroke:#000000;stroke-width:1.0;" x1="67.5" x2="238.5" y1="194.5938" y2="194.5938"/><text fill="#000000" font-family="Verdana" font-size="14" lengthAdjust="spacing" textLength="122" x="72.5" y="211.5889">code: varchar(50)</text><text fill="#000000" font-family="Verdana" font-size="14" lengthAdjust="spacing" textLength="161" x="72.5" y="227.8857">full_name: varchar(200)</text></g><!--class record_change_value--><g id="elem_record_change_value"><rect codeLine="28" fill="#FFFFFF" height="109.1875" id="record_change_value" rx="2.5" ry="2.5" style="stroke:#000000;stroke-width:1.0;" width="182" x="703" y="126"/><ellipse cx="719.15" cy="140" fill="#FFFFFF" rx="9" ry="9" style="stroke:#000000;stroke-width:1.0;"/><path d="M722.1188,145.6406 Q721.5406,145.9375 720.9,146.0781 Q720.2594,146.2344 719.5563,146.2344 Q717.0563,146.2344 715.7281,144.5938 Q714.4156,142.9375 714.4156,139.8125 Q714.4156,136.6875 715.7281,135.0313 Q717.0563,133.375 719.5563,133.375 Q720.2594,133.375 720.9,133.5313 Q721.5563,133.6875 722.1188,133.9844 L722.1188,136.7031 Q721.4938,136.125 720.9,135.8594 Q720.3063,135.5781 719.6813,135.5781 Q718.3375,135.5781 717.65,136.6563 Q716.9625,137.7188 716.9625,139.8125 Q716.9625,141.9063 717.65,142.9844 Q718.3375,144.0469 719.6813,144.0469 Q720.3063,144.0469 720.9,143.7813 Q721.4938,143.5 722.1188,142.9219 L722.1188,145.6406 Z " fill="#000000"/><text fill="#000000" font-family="Verdana" font-size="14" lengthAdjust="spacing" textLength="147" x="731.85" y="144.8467">record_change_value</text><line style="stroke:#000000;stroke-width:1.0;" x1="704" x2="884" y1="154" y2="154"/><text fill="#000000" font-family="Verdana" font-size="14" lengthAdjust="spacing" textLength="99" x="709" y="170.9951">old_value: text</text><text fill="#000000" font-family="Verdana" font-size="14" lengthAdjust="spacing" textLength="107" x="709" y="187.292">new_value: text</text><text fill="#000000" font-family="Verdana" font-size="14" lengthAdjust="spacing" textLength="170" x="709" y="203.5889">record_change_id: bigint</text><text fill="#000000" font-family="Verdana" font-size="14" lengthAdjust="spacing" textLength="124" x="709" y="219.8857">property_id: bigint</text><line style="stroke:#000000;stroke-width:1.0;" x1="704" x2="884" y1="227.1875" y2="227.1875"/></g><!--class vw_full_change_log--><g id="elem_vw_full_change_log"><rect codeLine="34" fill="#FFFFFF" height="337.3438" id="vw_full_change_log" rx="2.5" ry="2.5" style="stroke:#000000;stroke-width:1.0;" width="282" x="275" y="12"/><ellipse cx="346.75" cy="26" fill="#FFFFFF" rx="9" ry="9" style="stroke:#000000;stroke-width:1.0;"/><path d="M349.7188,31.6406 Q349.1406,31.9375 348.5,32.0781 Q347.8594,32.2344 347.1563,32.2344 Q344.6563,32.2344 343.3281,30.5938 Q342.0156,28.9375 342.0156,25.8125 Q342.0156,22.6875 343.3281,21.0313 Q344.6563,19.375 347.1563,19.375 Q347.8594,19.375 348.5,19.5313 Q349.1563,19.6875 349.7188,19.9844 L349.7188,22.7031 Q349.0938,22.125 348.5,21.8594 Q347.9063,21.5781 347.2813,21.5781 Q345.9375,21.5781 345.25,22.6563 Q344.5625,23.7188 344.5625,25.8125 Q344.5625,27.9063 345.25,28.9844 Q345.9375,30.0469 347.2813,30.0469 Q347.9063,30.0469 348.5,29.7813 Q349.0938,29.5 349.7188,28.9219 L349.7188,31.6406 Z " fill="#000000"/><text fill="#000000" font-family="Verdana" font-size="14" lengthAdjust="spacing" textLength="131" x="364.25" y="30.8467">vw_full_change_log</text><line style="stroke:#000000;stroke-width:1.0;" x1="276" x2="556" y1="40" y2="40"/><text fill="#000000" font-family="Verdana" font-size="14" lengthAdjust="spacing" textLength="170" x="281" y="56.9951">record_change_id: bigint</text><text fill="#000000" font-family="Verdana" font-size="14" lengthAdjust="spacing" textLength="89" x="281" y="73.292">trace_id: text</text><text fill="#000000" font-family="Verdana" font-size="14" lengthAdjust="spacing" textLength="168" x="281" y="89.5889">changed_on: timestamp</text><text fill="#000000" font-family="Verdana" font-size="14" lengthAdjust="spacing" textLength="172" x="281" y="105.8857">persisted_on: timestamp</text><text fill="#000000" font-family="Verdana" font-size="14" lengthAdjust="spacing" textLength="97" x="281" y="122.1826">user_id: bigint</text><text fill="#000000" font-family="Verdana" font-size="14" lengthAdjust="spacing" textLength="128" x="281" y="138.4795">primary_email: text</text><text fill="#000000" font-family="Verdana" font-size="14" lengthAdjust="spacing" textLength="104" x="281" y="154.7764">entity_id: bigint</text><text fill="#000000" font-family="Verdana" font-size="14" lengthAdjust="spacing" textLength="213" x="281" y="171.0732">entity_type: system.entity_type</text><text fill="#000000" font-family="Verdana" font-size="14" lengthAdjust="spacing" textLength="153" x="281" y="187.3701">entity_version: integer</text><text fill="#000000" font-family="Verdana" font-size="14" lengthAdjust="spacing" textLength="270" x="281" y="203.667">entity_change_type: audit.change_type</text><text fill="#000000" font-family="Verdana" font-size="14" lengthAdjust="spacing" textLength="156" x="281" y="219.9639">request_types: bigint[]</text><text fill="#000000" font-family="Verdana" font-size="14" lengthAdjust="spacing" textLength="150" x="281" y="236.2607">request_step_id: uuid</text><text fill="#000000" font-family="Verdana" font-size="14" lengthAdjust="spacing" textLength="124" x="281" y="252.5576">property_id: bigint</text><text fill="#000000" font-family="Verdana" font-size="14" lengthAdjust="spacing" textLength="131" x="281" y="268.8545">property_path: text</text><text fill="#000000" font-family="Verdana" font-size="14" lengthAdjust="spacing" textLength="99" x="281" y="285.1514">old_value: text</text><text fill="#000000" font-family="Verdana" font-size="14" lengthAdjust="spacing" textLength="107" x="281" y="301.4482">new_value: text</text><line style="stroke:#000000;stroke-width:1.0;" x1="276" x2="556" y1="308.75" y2="308.75"/><text fill="#000000" font-family="Verdana" font-size="14" lengthAdjust="spacing" textLength="122" x="281" y="325.7451">code: varchar(50)</text><text fill="#000000" font-family="Verdana" font-size="14" lengthAdjust="spacing" textLength="161" x="281" y="342.042">full_name: varchar(200)</text></g><!--class vw_record_change--><g id="elem_vw_record_change"><rect codeLine="54" fill="#FFFFFF" height="223.2656" id="vw_record_change" rx="2.5" ry="2.5" style="stroke:#000000;stroke-width:1.0;" width="282" x="12" y="409"/><ellipse cx="84.75" cy="423" fill="#FFFFFF" rx="9" ry="9" style="stroke:#000000;stroke-width:1.0;"/><path d="M87.7188,428.6406 Q87.1406,428.9375 86.5,429.0781 Q85.8594,429.2344 85.1563,429.2344 Q82.6563,429.2344 81.3281,427.5938 Q80.0156,425.9375 80.0156,422.8125 Q80.0156,419.6875 81.3281,418.0313 Q82.6563,416.375 85.1563,416.375 Q85.8594,416.375 86.5,416.5313 Q87.1563,416.6875 87.7188,416.9844 L87.7188,419.7031 Q87.0938,419.125 86.5,418.8594 Q85.9063,418.5781 85.2813,418.5781 Q83.9375,418.5781 83.25,419.6563 Q82.5625,420.7188 82.5625,422.8125 Q82.5625,424.9063 83.25,425.9844 Q83.9375,427.0469 85.2813,427.0469 Q85.9063,427.0469 86.5,426.7813 Q87.0938,426.5 87.7188,425.9219 L87.7188,428.6406 Z " fill="#000000"/><text fill="#000000" font-family="Verdana" font-size="14" lengthAdjust="spacing" textLength="129" x="102.25" y="427.8467">vw_record_change</text><line style="stroke:#000000;stroke-width:1.0;" x1="13" x2="293" y1="437" y2="437"/><text fill="#000000" font-family="Verdana" font-size="14" lengthAdjust="spacing" textLength="170" x="18" y="453.9951">record_change_id: bigint</text><text fill="#000000" font-family="Verdana" font-size="14" lengthAdjust="spacing" textLength="89" x="18" y="470.292">trace_id: text</text><text fill="#000000" font-family="Verdana" font-size="14" lengthAdjust="spacing" textLength="168" x="18" y="486.5889">changed_on: timestamp</text><text fill="#000000" font-family="Verdana" font-size="14" lengthAdjust="spacing" textLength="172" x="18" y="502.8857">persisted_on: timestamp</text><text fill="#000000" font-family="Verdana" font-size="14" lengthAdjust="spacing" textLength="97" x="18" y="519.1826">user_id: bigint</text><text fill="#000000" font-family="Verdana" font-size="14" lengthAdjust="spacing" textLength="104" x="18" y="535.4795">entity_id: bigint</text><text fill="#000000" font-family="Verdana" font-size="14" lengthAdjust="spacing" textLength="213" x="18" y="551.7764">entity_type: system.entity_type</text><text fill="#000000" font-family="Verdana" font-size="14" lengthAdjust="spacing" textLength="153" x="18" y="568.0732">entity_version: integer</text><text fill="#000000" font-family="Verdana" font-size="14" lengthAdjust="spacing" textLength="270" x="18" y="584.3701">entity_change_type: audit.change_type</text><text fill="#000000" font-family="Verdana" font-size="14" lengthAdjust="spacing" textLength="156" x="18" y="600.667">request_types: bigint[]</text><text fill="#000000" font-family="Verdana" font-size="14" lengthAdjust="spacing" textLength="150" x="18" y="616.9639">request_step_id: uuid</text><line style="stroke:#000000;stroke-width:1.0;" x1="13" x2="293" y1="624.2656" y2="624.2656"/></g><!--class vw_record_change_property--><g id="elem_vw_record_change_property"><rect codeLine="67" fill="#FFFFFF" height="125.4844" id="vw_record_change_property" rx="2.5" ry="2.5" style="stroke:#000000;stroke-width:1.0;" width="222" x="329" y="458"/><ellipse cx="342" cy="472" fill="#FFFFFF" rx="9" ry="9" style="stroke:#000000;stroke-width:1.0;"/><path d="M344.9688,477.6406 Q344.3906,477.9375 343.75,478.0781 Q343.1094,478.2344 342.4063,478.2344 Q339.9063,478.2344 338.5781,476.5938 Q337.2656,474.9375 337.2656,471.8125 Q337.2656,468.6875 338.5781,467.0313 Q339.9063,465.375 342.4063,465.375 Q343.1094,465.375 343.75,465.5313 Q344.4063,465.6875 344.9688,465.9844 L344.9688,468.7031 Q344.3438,468.125 343.75,467.8594 Q343.1563,467.5781 342.5313,467.5781 Q341.1875,467.5781 340.5,468.6563 Q339.8125,469.7188 339.8125,471.8125 Q339.8125,473.9063 340.5,474.9844 Q341.1875,476.0469 342.5313,476.0469 Q343.1563,476.0469 343.75,475.7813 Q344.3438,475.5 344.9688,474.9219 L344.9688,477.6406 Z " fill="#000000"/><text fill="#000000" font-family="Verdana" font-size="14" lengthAdjust="spacing" textLength="194" x="354" y="476.8467">vw_record_change_property</text><line style="stroke:#000000;stroke-width:1.0;" x1="330" x2="550" y1="486" y2="486"/><text fill="#000000" font-family="Verdana" font-size="14" lengthAdjust="spacing" textLength="170" x="335" y="502.9951">record_change_id: bigint</text><text fill="#000000" font-family="Verdana" font-size="14" lengthAdjust="spacing" textLength="124" x="335" y="519.292">property_id: bigint</text><text fill="#000000" font-family="Verdana" font-size="14" lengthAdjust="spacing" textLength="131" x="335" y="535.5889">property_path: text</text><text fill="#000000" font-family="Verdana" font-size="14" lengthAdjust="spacing" textLength="99" x="335" y="551.8857">old_value: text</text><text fill="#000000" font-family="Verdana" font-size="14" lengthAdjust="spacing" textLength="107" x="335" y="568.1826">new_value: text</text><line style="stroke:#000000;stroke-width:1.0;" x1="330" x2="550" y1="575.4844" y2="575.4844"/></g><!--link record_change_value to property--><g id="link_record_change_value_property"><path codeLine="75" d="M750.25,235.13 C750.25,235.13 750.25,461.87 750.25,461.87 " fill="none" id="record_change_value-to-property" style="stroke:#595959;stroke-width:1.0;"/><polygon fill="none" points="757.25,461.87,750.25,481.87,743.25,461.87,757.25,461.87" style="stroke:#595959;stroke-width:1.0;"/><text fill="#000000" font-family="Verdana" font-size="13" lengthAdjust="spacing" textLength="72" x="677.25" y="344.5669">property_id</text></g><!--link record_change_value to record_change--><g id="link_record_change_value_record_change"><path codeLine="76" d="M859,235.13 C859,235.13 859,388.96 859,388.96 " fill="none" id="record_change_value-to-record_change" style="stroke:#595959;stroke-width:1.0;"/><polygon fill="none" points="866,388.96,859,408.96,852,388.96,866,388.96" style="stroke:#595959;stroke-width:1.0;"/><text fill="#000000" font-family="Verdana" font-size="13" lengthAdjust="spacing" textLength="113" x="745" y="308.1069">record_change_id</text></g><!--SRC=[rLNBJiCm4BpdAqovW4Ih2ga7-YjLiTnuIIpymjwaH8X_ntcKE26bL80GpicpzinwTkrSO0uAY9LCw0ID9MZ8pY0QHRXmaA8mEl6FGblcc29IQC3A0Z4ESvCagMJU4-kC1OSLUKa8UPzHop1V4uHd7C22hybEP49ZyjeH127ZE4rpfZDeMT2n59gr1u8sogdH0HCAF39b6sPmNdYS2XKUN2mO8D0eXbdqO7sqDV5L85EB28kMbBLOhHDsGWOk2hK9TYIiu08N4LGlTF1KXEIQkJ_eRxPnA4ZR9hcY4BmDHDwSD8_M9suTJ0qFUPJCXOYxMYslQ_2Xa99gfgB8xR8DMISKSnK5nOJiRHzRE2rRCbbqbJEIjzEUGyD-31qzrebMAVUqEKEtKPgiLVsCxzTwwOSi_cyjELMVunV_2_qG5NVYAVYJqlwhcXppZmvVvdFlt3Thcamz4TsORovNT_Ltq_nwjlFxNejy66ioY_ARdKiyxAaHyTYKsHi0]--></g></svg>