<?xml version="1.0" encoding="UTF-8" standalone="no"?><svg xmlns="http://www.w3.org/2000/svg" xmlns:xlink="http://www.w3.org/1999/xlink" contentStyleType="text/css" height="258px" preserveAspectRatio="none" style="width:457px;height:258px;background:#FFFFFF;" version="1.1" viewBox="0 0 457 258" width="457px" zoomAndPan="magnify"><defs/><g><!--class acquisition_status--><g id="elem_acquisition_status"><rect codeLine="5" fill="#FFFFFF" height="239.5625" id="acquisition_status" rx="2.5" ry="2.5" style="stroke:#000000;stroke-width:1.0;" width="202" x="12" y="12"/><ellipse cx="47.5" cy="26" fill="#FFFFFF" rx="9" ry="9" style="stroke:#000000;stroke-width:1.0;"/><path d="M50.4688,31.6406 Q49.8906,31.9375 49.25,32.0781 Q48.6094,32.2344 47.9063,32.2344 Q45.4063,32.2344 44.0781,30.5938 Q42.7656,28.9375 42.7656,25.8125 Q42.7656,22.6875 44.0781,21.0313 Q45.4063,19.375 47.9063,19.375 Q48.6094,19.375 49.25,19.5313 Q49.9063,19.6875 50.4688,19.9844 L50.4688,22.7031 Q49.8438,22.125 49.25,21.8594 Q48.6563,21.5781 48.0313,21.5781 Q46.6875,21.5781 46,22.6563 Q45.3125,23.7188 45.3125,25.8125 Q45.3125,27.9063 46,28.9844 Q46.6875,30.0469 48.0313,30.0469 Q48.6563,30.0469 49.25,29.7813 Q49.8438,29.5 50.4688,28.9219 L50.4688,31.6406 Z " fill="#000000"/><text fill="#000000" font-family="Verdana" font-size="14" lengthAdjust="spacing" textLength="124" x="64.5" y="30.8467">acquisition_status</text><line style="stroke:#000000;stroke-width:1.0;" x1="13" x2="213" y1="40" y2="40"/><text fill="#000000" font-family="Verdana" font-size="14" lengthAdjust="spacing" textLength="108" x="18" y="56.9951">version: integer</text><text fill="#000000" font-family="Verdana" font-size="14" lengthAdjust="spacing" textLength="177" x="18" y="73.292">permission_tree_id: bigint</text><text fill="#000000" font-family="Verdana" font-size="14" lengthAdjust="spacing" textLength="123" x="18" y="89.5889">is_active: boolean</text><text fill="#000000" font-family="Verdana" font-size="14" lengthAdjust="spacing" textLength="189" x="18" y="105.8857">sequence_number: integer</text><text fill="#000000" font-family="Verdana" font-size="14" lengthAdjust="spacing" textLength="75" x="18" y="122.1826">notes: text</text><text fill="#000000" font-family="Verdana" font-size="14" lengthAdjust="spacing" textLength="160" x="18" y="138.4795">created_on: timestamp</text><text fill="#000000" font-family="Verdana" font-size="14" lengthAdjust="spacing" textLength="180" x="18" y="154.7764">created_by_user_id: bigint</text><text fill="#000000" font-family="Verdana" font-size="14" lengthAdjust="spacing" textLength="166" x="18" y="171.0732">modified_on: timestamp</text><text fill="#000000" font-family="Verdana" font-size="14" lengthAdjust="spacing" textLength="186" x="18" y="187.3701">modified_by_user_id: bigint</text><text fill="#000000" font-family="Verdana" font-size="14" lengthAdjust="spacing" textLength="190" x="18" y="203.667">acquisition_status_id: bigint</text><line style="stroke:#000000;stroke-width:1.0;" x1="13" x2="213" y1="210.9688" y2="210.9688"/><text fill="#000000" font-family="Verdana" font-size="14" lengthAdjust="spacing" textLength="122" x="18" y="227.9639">code: varchar(50)</text><text fill="#000000" font-family="Verdana" font-size="14" lengthAdjust="spacing" textLength="173" x="18" y="244.2607">description: varchar(100)</text></g><!--class acquisition_type--><g id="elem_acquisition_type"><rect codeLine="19" fill="#FFFFFF" height="239.5625" id="acquisition_type" rx="2.5" ry="2.5" style="stroke:#000000;stroke-width:1.0;" width="201" x="249.5" y="12"/><ellipse cx="290.75" cy="26" fill="#FFFFFF" rx="9" ry="9" style="stroke:#000000;stroke-width:1.0;"/><path d="M293.7188,31.6406 Q293.1406,31.9375 292.5,32.0781 Q291.8594,32.2344 291.1563,32.2344 Q288.6563,32.2344 287.3281,30.5938 Q286.0156,28.9375 286.0156,25.8125 Q286.0156,22.6875 287.3281,21.0313 Q288.6563,19.375 291.1563,19.375 Q291.8594,19.375 292.5,19.5313 Q293.1563,19.6875 293.7188,19.9844 L293.7188,22.7031 Q293.0938,22.125 292.5,21.8594 Q291.9063,21.5781 291.2813,21.5781 Q289.9375,21.5781 289.25,22.6563 Q288.5625,23.7188 288.5625,25.8125 Q288.5625,27.9063 289.25,28.9844 Q289.9375,30.0469 291.2813,30.0469 Q291.9063,30.0469 292.5,29.7813 Q293.0938,29.5 293.7188,28.9219 L293.7188,31.6406 Z " fill="#000000"/><text fill="#000000" font-family="Verdana" font-size="14" lengthAdjust="spacing" textLength="111" x="308.25" y="30.8467">acquisition_type</text><line style="stroke:#000000;stroke-width:1.0;" x1="250.5" x2="449.5" y1="40" y2="40"/><text fill="#000000" font-family="Verdana" font-size="14" lengthAdjust="spacing" textLength="108" x="255.5" y="56.9951">version: integer</text><text fill="#000000" font-family="Verdana" font-size="14" lengthAdjust="spacing" textLength="177" x="255.5" y="73.292">permission_tree_id: bigint</text><text fill="#000000" font-family="Verdana" font-size="14" lengthAdjust="spacing" textLength="123" x="255.5" y="89.5889">is_active: boolean</text><text fill="#000000" font-family="Verdana" font-size="14" lengthAdjust="spacing" textLength="189" x="255.5" y="105.8857">sequence_number: integer</text><text fill="#000000" font-family="Verdana" font-size="14" lengthAdjust="spacing" textLength="75" x="255.5" y="122.1826">notes: text</text><text fill="#000000" font-family="Verdana" font-size="14" lengthAdjust="spacing" textLength="160" x="255.5" y="138.4795">created_on: timestamp</text><text fill="#000000" font-family="Verdana" font-size="14" lengthAdjust="spacing" textLength="180" x="255.5" y="154.7764">created_by_user_id: bigint</text><text fill="#000000" font-family="Verdana" font-size="14" lengthAdjust="spacing" textLength="166" x="255.5" y="171.0732">modified_on: timestamp</text><text fill="#000000" font-family="Verdana" font-size="14" lengthAdjust="spacing" textLength="186" x="255.5" y="187.3701">modified_by_user_id: bigint</text><text fill="#000000" font-family="Verdana" font-size="14" lengthAdjust="spacing" textLength="177" x="255.5" y="203.667">acquisition_type_id: bigint</text><line style="stroke:#000000;stroke-width:1.0;" x1="250.5" x2="449.5" y1="210.9688" y2="210.9688"/><text fill="#000000" font-family="Verdana" font-size="14" lengthAdjust="spacing" textLength="122" x="255.5" y="227.9639">code: varchar(50)</text><text fill="#000000" font-family="Verdana" font-size="14" lengthAdjust="spacing" textLength="173" x="255.5" y="244.2607">description: varchar(100)</text></g><!--SRC=[xP1DJiGm38NtFONPmMvOiEbbeZHvJ2sQdx7T4IF4tKcAG3FG1GTW-xtdEFxkR4O2rSLp7gnKia9JCIk98Wk2SSc3ld2kNdoYXJFiKa55R2x341QlIZwSLbRkNQVcRLLw6uZe3D76Hk9iE48wgv34sh4p0Hp7aIO-jaPFMPrlEyzei9G5FdUgEAt80IwlQOBSl1TAREMpbp1xkNywF7GOeK6ushRyAtiyV8Qv67Gam-ksCWYy8RfUDKve1wHw7KmNjohanqzJYVpCUtFVoVxWRrdNXVSTfPlmVw5_4TfLtUZy0000]--></g></svg>