<?xml version="1.0" encoding="UTF-8" standalone="no"?><svg xmlns="http://www.w3.org/2000/svg" xmlns:xlink="http://www.w3.org/1999/xlink" contentStyleType="text/css" height="1016px" preserveAspectRatio="none" style="width:1179px;height:1016px;background:#FFFFFF;" version="1.1" viewBox="0 0 1179 1016" width="1179px" zoomAndPan="magnify"><defs/><g><!--class document_folder--><g id="elem_document_folder"><rect codeLine="5" fill="#FFFFFF" height="206.9688" id="document_folder" rx="2.5" ry="2.5" style="stroke:#000000;stroke-width:1.0;" width="247" x="335.25" y="782"/><ellipse cx="396.5" cy="796" fill="#FFFFFF" rx="9" ry="9" style="stroke:#000000;stroke-width:1.0;"/><path d="M399.4688,801.6406 Q398.8906,801.9375 398.25,802.0781 Q397.6094,802.2344 396.9063,802.2344 Q394.4063,802.2344 393.0781,800.5938 Q391.7656,798.9375 391.7656,795.8125 Q391.7656,792.6875 393.0781,791.0313 Q394.4063,789.375 396.9063,789.375 Q397.6094,789.375 398.25,789.5313 Q398.9063,789.6875 399.4688,789.9844 L399.4688,792.7031 Q398.8438,792.125 398.25,791.8594 Q397.6563,791.5781 397.0313,791.5781 Q395.6875,791.5781 395,792.6563 Q394.3125,793.7188 394.3125,795.8125 Q394.3125,797.9063 395,798.9844 Q395.6875,800.0469 397.0313,800.0469 Q397.6563,800.0469 398.25,799.7813 Q398.8438,799.5 399.4688,798.9219 L399.4688,801.6406 Z " fill="#000000"/><text fill="#000000" font-family="Verdana" font-size="14" lengthAdjust="spacing" textLength="117" x="414" y="800.8467">document_folder</text><line style="stroke:#000000;stroke-width:1.0;" x1="336.25" x2="581.25" y1="810" y2="810"/><text fill="#000000" font-family="Verdana" font-size="14" lengthAdjust="spacing" textLength="108" x="341.25" y="826.9951">version: integer</text><text fill="#000000" font-family="Verdana" font-size="14" lengthAdjust="spacing" textLength="235" x="341.25" y="843.292">parent_document_folder_id: bigint</text><text fill="#000000" font-family="Verdana" font-size="14" lengthAdjust="spacing" textLength="189" x="341.25" y="859.5889">sequence_number: integer</text><text fill="#000000" font-family="Verdana" font-size="14" lengthAdjust="spacing" textLength="75" x="341.25" y="875.8857">notes: text</text><text fill="#000000" font-family="Verdana" font-size="14" lengthAdjust="spacing" textLength="160" x="341.25" y="892.1826">created_on: timestamp</text><text fill="#000000" font-family="Verdana" font-size="14" lengthAdjust="spacing" textLength="180" x="341.25" y="908.4795">created_by_user_id: bigint</text><text fill="#000000" font-family="Verdana" font-size="14" lengthAdjust="spacing" textLength="166" x="341.25" y="924.7764">modified_on: timestamp</text><text fill="#000000" font-family="Verdana" font-size="14" lengthAdjust="spacing" textLength="186" x="341.25" y="941.0732">modified_by_user_id: bigint</text><text fill="#000000" font-family="Verdana" font-size="14" lengthAdjust="spacing" textLength="183" x="341.25" y="957.3701">document_folder_id: bigint</text><line style="stroke:#000000;stroke-width:1.0;" x1="336.25" x2="581.25" y1="964.6719" y2="964.6719"/><text fill="#000000" font-family="Verdana" font-size="14" lengthAdjust="spacing" textLength="173" x="341.25" y="981.667">description: varchar(100)</text></g><!--class document_record--><g id="elem_document_record"><rect codeLine="17" fill="#FFFFFF" height="369.9375" id="document_record" rx="2.5" ry="2.5" style="stroke:#000000;stroke-width:1.0;" width="204" x="356.75" y="344"/><ellipse cx="393.6" cy="358" fill="#FFFFFF" rx="9" ry="9" style="stroke:#000000;stroke-width:1.0;"/><path d="M396.5688,363.6406 Q395.9906,363.9375 395.35,364.0781 Q394.7094,364.2344 394.0063,364.2344 Q391.5063,364.2344 390.1781,362.5938 Q388.8656,360.9375 388.8656,357.8125 Q388.8656,354.6875 390.1781,353.0313 Q391.5063,351.375 394.0063,351.375 Q394.7094,351.375 395.35,351.5313 Q396.0063,351.6875 396.5688,351.9844 L396.5688,354.7031 Q395.9438,354.125 395.35,353.8594 Q394.7563,353.5781 394.1313,353.5781 Q392.7875,353.5781 392.1,354.6563 Q391.4125,355.7188 391.4125,357.8125 Q391.4125,359.9063 392.1,360.9844 Q392.7875,362.0469 394.1313,362.0469 Q394.7563,362.0469 395.35,361.7813 Q395.9438,361.5 396.5688,360.9219 L396.5688,363.6406 Z " fill="#000000"/><text fill="#000000" font-family="Verdana" font-size="14" lengthAdjust="spacing" textLength="123" x="410.9" y="362.8467">document_record</text><line style="stroke:#000000;stroke-width:1.0;" x1="357.75" x2="559.75" y1="372" y2="372"/><text fill="#000000" font-family="Verdana" font-size="14" lengthAdjust="spacing" textLength="108" x="362.75" y="388.9951">version: integer</text><text fill="#000000" font-family="Verdana" font-size="14" lengthAdjust="spacing" textLength="177" x="362.75" y="405.292">permission_tree_id: bigint</text><text fill="#000000" font-family="Verdana" font-size="14" lengthAdjust="spacing" textLength="183" x="362.75" y="421.5889">document_folder_id: bigint</text><text fill="#000000" font-family="Verdana" font-size="14" lengthAdjust="spacing" textLength="123" x="362.75" y="437.8857">is_active: boolean</text><text fill="#000000" font-family="Verdana" font-size="14" lengthAdjust="spacing" textLength="172" x="362.75" y="454.1826">revision_number: integer</text><text fill="#000000" font-family="Verdana" font-size="14" lengthAdjust="spacing" textLength="173" x="362.75" y="470.4795">revision_date: timestamp</text><text fill="#000000" font-family="Verdana" font-size="14" lengthAdjust="spacing" textLength="148" x="362.75" y="486.7764">is_approved: boolean</text><text fill="#000000" font-family="Verdana" font-size="14" lengthAdjust="spacing" textLength="192" x="362.75" y="503.0732">approved_by_user_id: bigint</text><text fill="#000000" font-family="Verdana" font-size="14" lengthAdjust="spacing" textLength="185" x="362.75" y="519.3701">approved_from: timestamp</text><text fill="#000000" font-family="Verdana" font-size="14" lengthAdjust="spacing" textLength="168" x="362.75" y="535.667">approved_to: timestamp</text><text fill="#000000" font-family="Verdana" font-size="14" lengthAdjust="spacing" textLength="115" x="362.75" y="551.9639">file_location: text</text><text fill="#000000" font-family="Verdana" font-size="14" lengthAdjust="spacing" textLength="75" x="362.75" y="568.2607">notes: text</text><text fill="#000000" font-family="Verdana" font-size="14" lengthAdjust="spacing" textLength="160" x="362.75" y="584.5576">created_on: timestamp</text><text fill="#000000" font-family="Verdana" font-size="14" lengthAdjust="spacing" textLength="180" x="362.75" y="600.8545">created_by_user_id: bigint</text><text fill="#000000" font-family="Verdana" font-size="14" lengthAdjust="spacing" textLength="166" x="362.75" y="617.1514">modified_on: timestamp</text><text fill="#000000" font-family="Verdana" font-size="14" lengthAdjust="spacing" textLength="186" x="362.75" y="633.4482">modified_by_user_id: bigint</text><text fill="#000000" font-family="Verdana" font-size="14" lengthAdjust="spacing" textLength="189" x="362.75" y="649.7451">document_record_id: bigint</text><line style="stroke:#000000;stroke-width:1.0;" x1="357.75" x2="559.75" y1="657.0469" y2="657.0469"/><text fill="#000000" font-family="Verdana" font-size="14" lengthAdjust="spacing" textLength="122" x="362.75" y="674.042">code: varchar(50)</text><text fill="#000000" font-family="Verdana" font-size="14" lengthAdjust="spacing" textLength="173" x="362.75" y="690.3389">description: varchar(100)</text><text fill="#000000" font-family="Verdana" font-size="14" lengthAdjust="spacing" textLength="169" x="362.75" y="706.6357">revised_by: varchar(100)</text></g><!--class document_record_attribute--><g id="elem_document_record_attribute"><rect codeLine="39" fill="#FFFFFF" height="272.1563" id="document_record_attribute" rx="2.5" ry="2.5" style="stroke:#000000;stroke-width:1.0;" width="276" x="320.75" y="12"/><ellipse cx="361" cy="26" fill="#FFFFFF" rx="9" ry="9" style="stroke:#000000;stroke-width:1.0;"/><path d="M363.9688,31.6406 Q363.3906,31.9375 362.75,32.0781 Q362.1094,32.2344 361.4063,32.2344 Q358.9063,32.2344 357.5781,30.5938 Q356.2656,28.9375 356.2656,25.8125 Q356.2656,22.6875 357.5781,21.0313 Q358.9063,19.375 361.4063,19.375 Q362.1094,19.375 362.75,19.5313 Q363.4063,19.6875 363.9688,19.9844 L363.9688,22.7031 Q363.3438,22.125 362.75,21.8594 Q362.1563,21.5781 361.5313,21.5781 Q360.1875,21.5781 359.5,22.6563 Q358.8125,23.7188 358.8125,25.8125 Q358.8125,27.9063 359.5,28.9844 Q360.1875,30.0469 361.5313,30.0469 Q362.1563,30.0469 362.75,29.7813 Q363.3438,29.5 363.9688,28.9219 L363.9688,31.6406 Z " fill="#000000"/><text fill="#000000" font-family="Verdana" font-size="14" lengthAdjust="spacing" textLength="188" x="378.5" y="30.8467">document_record_attribute</text><line style="stroke:#000000;stroke-width:1.0;" x1="321.75" x2="595.75" y1="40" y2="40"/><text fill="#000000" font-family="Verdana" font-size="14" lengthAdjust="spacing" textLength="189" x="326.75" y="56.9951">document_record_id: bigint</text><text fill="#000000" font-family="Verdana" font-size="14" lengthAdjust="spacing" textLength="108" x="326.75" y="73.292">version: integer</text><text fill="#000000" font-family="Verdana" font-size="14" lengthAdjust="spacing" textLength="123" x="326.75" y="89.5889">is_active: boolean</text><text fill="#000000" font-family="Verdana" font-size="14" lengthAdjust="spacing" textLength="189" x="326.75" y="105.8857">sequence_number: integer</text><text fill="#000000" font-family="Verdana" font-size="14" lengthAdjust="spacing" textLength="177" x="326.75" y="122.1826">permission_tree_id: bigint</text><text fill="#000000" font-family="Verdana" font-size="14" lengthAdjust="spacing" textLength="124" x="326.75" y="138.4795">attribute_id: bigint</text><text fill="#000000" font-family="Verdana" font-size="14" lengthAdjust="spacing" textLength="167" x="326.75" y="154.7764">attribute_value_id: bigint</text><text fill="#000000" font-family="Verdana" font-size="14" lengthAdjust="spacing" textLength="264" x="326.75" y="171.0732">attribute_value: system.dynamic_value</text><text fill="#000000" font-family="Verdana" font-size="14" lengthAdjust="spacing" textLength="75" x="326.75" y="187.3701">notes: text</text><text fill="#000000" font-family="Verdana" font-size="14" lengthAdjust="spacing" textLength="160" x="326.75" y="203.667">created_on: timestamp</text><text fill="#000000" font-family="Verdana" font-size="14" lengthAdjust="spacing" textLength="180" x="326.75" y="219.9639">created_by_user_id: bigint</text><text fill="#000000" font-family="Verdana" font-size="14" lengthAdjust="spacing" textLength="166" x="326.75" y="236.2607">modified_on: timestamp</text><text fill="#000000" font-family="Verdana" font-size="14" lengthAdjust="spacing" textLength="186" x="326.75" y="252.5576">modified_by_user_id: bigint</text><text fill="#000000" font-family="Verdana" font-size="14" lengthAdjust="spacing" textLength="254" x="326.75" y="268.8545">document_record_attribute_id: bigint</text><line style="stroke:#000000;stroke-width:1.0;" x1="321.75" x2="595.75" y1="276.1563" y2="276.1563"/></g><!--class file_attachment_category--><g id="elem_file_attachment_category"><rect codeLine="55" fill="#FFFFFF" height="223.2656" id="file_attachment_category" rx="2.5" ry="2.5" style="stroke:#000000;stroke-width:1.0;" width="250" x="641.75" y="774"/><ellipse cx="677.25" cy="788" fill="#FFFFFF" rx="9" ry="9" style="stroke:#000000;stroke-width:1.0;"/><path d="M680.2188,793.6406 Q679.6406,793.9375 679,794.0781 Q678.3594,794.2344 677.6563,794.2344 Q675.1563,794.2344 673.8281,792.5938 Q672.5156,790.9375 672.5156,787.8125 Q672.5156,784.6875 673.8281,783.0313 Q675.1563,781.375 677.6563,781.375 Q678.3594,781.375 679,781.5313 Q679.6563,781.6875 680.2188,781.9844 L680.2188,784.7031 Q679.5938,784.125 679,783.8594 Q678.4063,783.5781 677.7813,783.5781 Q676.4375,783.5781 675.75,784.6563 Q675.0625,785.7188 675.0625,787.8125 Q675.0625,789.9063 675.75,790.9844 Q676.4375,792.0469 677.7813,792.0469 Q678.4063,792.0469 679,791.7813 Q679.5938,791.5 680.2188,790.9219 L680.2188,793.6406 Z " fill="#000000"/><text fill="#000000" font-family="Verdana" font-size="14" lengthAdjust="spacing" textLength="172" x="694.25" y="792.8467">file_attachment_category</text><line style="stroke:#000000;stroke-width:1.0;" x1="642.75" x2="890.75" y1="802" y2="802"/><text fill="#000000" font-family="Verdana" font-size="14" lengthAdjust="spacing" textLength="108" x="647.75" y="818.9951">version: integer</text><text fill="#000000" font-family="Verdana" font-size="14" lengthAdjust="spacing" textLength="177" x="647.75" y="835.292">permission_tree_id: bigint</text><text fill="#000000" font-family="Verdana" font-size="14" lengthAdjust="spacing" textLength="123" x="647.75" y="851.5889">is_active: boolean</text><text fill="#000000" font-family="Verdana" font-size="14" lengthAdjust="spacing" textLength="112" x="647.75" y="867.8857">description: text</text><text fill="#000000" font-family="Verdana" font-size="14" lengthAdjust="spacing" textLength="187" x="647.75" y="884.1826">auto_is_restricted: boolean</text><text fill="#000000" font-family="Verdana" font-size="14" lengthAdjust="spacing" textLength="160" x="647.75" y="900.4795">created_on: timestamp</text><text fill="#000000" font-family="Verdana" font-size="14" lengthAdjust="spacing" textLength="180" x="647.75" y="916.7764">created_by_user_id: bigint</text><text fill="#000000" font-family="Verdana" font-size="14" lengthAdjust="spacing" textLength="166" x="647.75" y="933.0732">modified_on: timestamp</text><text fill="#000000" font-family="Verdana" font-size="14" lengthAdjust="spacing" textLength="186" x="647.75" y="949.3701">modified_by_user_id: bigint</text><text fill="#000000" font-family="Verdana" font-size="14" lengthAdjust="spacing" textLength="238" x="647.75" y="965.667">file_attachment_category_id: bigint</text><line style="stroke:#000000;stroke-width:1.0;" x1="642.75" x2="890.75" y1="972.9688" y2="972.9688"/><text fill="#000000" font-family="Verdana" font-size="14" lengthAdjust="spacing" textLength="122" x="647.75" y="989.9639">code: varchar(50)</text></g><!--class file_attachment_file_type--><g id="elem_file_attachment_file_type"><rect codeLine="68" fill="#FFFFFF" height="76.5938" id="file_attachment_file_type" rx="2.5" ry="2.5" style="stroke:#000000;stroke-width:1.0;" width="246" x="926.75" y="847"/><ellipse cx="962.25" cy="861" fill="#FFFFFF" rx="9" ry="9" style="stroke:#000000;stroke-width:1.0;"/><path d="M965.2188,866.6406 Q964.6406,866.9375 964,867.0781 Q963.3594,867.2344 962.6563,867.2344 Q960.1563,867.2344 958.8281,865.5938 Q957.5156,863.9375 957.5156,860.8125 Q957.5156,857.6875 958.8281,856.0313 Q960.1563,854.375 962.6563,854.375 Q963.3594,854.375 964,854.5313 Q964.6563,854.6875 965.2188,854.9844 L965.2188,857.7031 Q964.5938,857.125 964,856.8594 Q963.4063,856.5781 962.7813,856.5781 Q961.4375,856.5781 960.75,857.6563 Q960.0625,858.7188 960.0625,860.8125 Q960.0625,862.9063 960.75,863.9844 Q961.4375,865.0469 962.7813,865.0469 Q963.4063,865.0469 964,864.7813 Q964.5938,864.5 965.2188,863.9219 L965.2188,866.6406 Z " fill="#000000"/><text fill="#000000" font-family="Verdana" font-size="14" lengthAdjust="spacing" textLength="168" x="979.25" y="865.8467">file_attachment_file_type</text><line style="stroke:#000000;stroke-width:1.0;" x1="927.75" x2="1171.75" y1="875" y2="875"/><text fill="#000000" font-family="Verdana" font-size="14" lengthAdjust="spacing" textLength="103" x="932.75" y="891.9951">extension: text</text><text fill="#000000" font-family="Verdana" font-size="14" lengthAdjust="spacing" textLength="234" x="932.75" y="908.292">file_attachment_file_type_id: bigint</text><line style="stroke:#000000;stroke-width:1.0;" x1="927.75" x2="1171.75" y1="915.5938" y2="915.5938"/></g><!--class file_attachment_store--><g id="elem_file_attachment_store"><rect codeLine="72" fill="#FFFFFF" height="190.6719" id="file_attachment_store" rx="2.5" ry="2.5" style="stroke:#000000;stroke-width:1.0;" width="258" x="642.75" y="433.5"/><ellipse cx="694" cy="447.5" fill="#FFFFFF" rx="9" ry="9" style="stroke:#000000;stroke-width:1.0;"/><path d="M696.9688,453.1406 Q696.3906,453.4375 695.75,453.5781 Q695.1094,453.7344 694.4063,453.7344 Q691.9063,453.7344 690.5781,452.0938 Q689.2656,450.4375 689.2656,447.3125 Q689.2656,444.1875 690.5781,442.5313 Q691.9063,440.875 694.4063,440.875 Q695.1094,440.875 695.75,441.0313 Q696.4063,441.1875 696.9688,441.4844 L696.9688,444.2031 Q696.3438,443.625 695.75,443.3594 Q695.1563,443.0781 694.5313,443.0781 Q693.1875,443.0781 692.5,444.1563 Q691.8125,445.2188 691.8125,447.3125 Q691.8125,449.4063 692.5,450.4844 Q693.1875,451.5469 694.5313,451.5469 Q695.1563,451.5469 695.75,451.2813 Q696.3438,451 696.9688,450.4219 L696.9688,453.1406 Z " fill="#000000"/><text fill="#000000" font-family="Verdana" font-size="14" lengthAdjust="spacing" textLength="148" x="711.5" y="452.3467">file_attachment_store</text><line style="stroke:#000000;stroke-width:1.0;" x1="643.75" x2="899.75" y1="461.5" y2="461.5"/><text fill="#000000" font-family="Verdana" font-size="14" lengthAdjust="spacing" textLength="246" x="648.75" y="478.4951">file_content_store_identity_id: bigint</text><text fill="#000000" font-family="Verdana" font-size="14" lengthAdjust="spacing" textLength="213" x="648.75" y="494.792">entity_type: system.entity_type</text><text fill="#000000" font-family="Verdana" font-size="14" lengthAdjust="spacing" textLength="100" x="648.75" y="511.0889">file_name: text</text><text fill="#000000" font-family="Verdana" font-size="14" lengthAdjust="spacing" textLength="126" x="648.75" y="527.3857">file_full_name: text</text><text fill="#000000" font-family="Verdana" font-size="14" lengthAdjust="spacing" textLength="96" x="648.75" y="543.6826">type_id: bigint</text><text fill="#000000" font-family="Verdana" font-size="14" lengthAdjust="spacing" textLength="169" x="648.75" y="559.9795">content_version: integer</text><text fill="#000000" font-family="Verdana" font-size="14" lengthAdjust="spacing" textLength="149" x="648.75" y="576.2764">is_restricted: boolean</text><text fill="#000000" font-family="Verdana" font-size="14" lengthAdjust="spacing" textLength="126" x="648.75" y="592.5732">category_id: bigint</text><text fill="#000000" font-family="Verdana" font-size="14" lengthAdjust="spacing" textLength="214" x="648.75" y="608.8701">file_attachment_store_id: bigint</text><line style="stroke:#000000;stroke-width:1.0;" x1="643.75" x2="899.75" y1="616.1719" y2="616.1719"/></g><!--class file_attachment_store_history--><g id="elem_file_attachment_store_history"><rect codeLine="83" fill="#FFFFFF" height="141.7813" id="file_attachment_store_history" rx="2.5" ry="2.5" style="stroke:#000000;stroke-width:1.0;" width="279" x="632.25" y="77"/><ellipse cx="667.75" cy="91" fill="#FFFFFF" rx="9" ry="9" style="stroke:#000000;stroke-width:1.0;"/><path d="M670.7188,96.6406 Q670.1406,96.9375 669.5,97.0781 Q668.8594,97.2344 668.1563,97.2344 Q665.6563,97.2344 664.3281,95.5938 Q663.0156,93.9375 663.0156,90.8125 Q663.0156,87.6875 664.3281,86.0313 Q665.6563,84.375 668.1563,84.375 Q668.8594,84.375 669.5,84.5313 Q670.1563,84.6875 670.7188,84.9844 L670.7188,87.7031 Q670.0938,87.125 669.5,86.8594 Q668.9063,86.5781 668.2813,86.5781 Q666.9375,86.5781 666.25,87.6563 Q665.5625,88.7188 665.5625,90.8125 Q665.5625,92.9063 666.25,93.9844 Q666.9375,95.0469 668.2813,95.0469 Q668.9063,95.0469 669.5,94.7813 Q670.0938,94.5 670.7188,93.9219 L670.7188,96.6406 Z " fill="#000000"/><text fill="#000000" font-family="Verdana" font-size="14" lengthAdjust="spacing" textLength="201" x="684.75" y="95.8467">file_attachment_store_history</text><line style="stroke:#000000;stroke-width:1.0;" x1="633.25" x2="910.25" y1="105" y2="105"/><text fill="#000000" font-family="Verdana" font-size="14" lengthAdjust="spacing" textLength="108" x="638.25" y="121.9951">version: integer</text><text fill="#000000" font-family="Verdana" font-size="14" lengthAdjust="spacing" textLength="214" x="638.25" y="138.292">file_attachment_store_id: bigint</text><text fill="#000000" font-family="Verdana" font-size="14" lengthAdjust="spacing" textLength="246" x="638.25" y="154.5889">file_content_store_identity_id: bigint</text><text fill="#000000" font-family="Verdana" font-size="14" lengthAdjust="spacing" textLength="169" x="638.25" y="170.8857">content_version: integer</text><text fill="#000000" font-family="Verdana" font-size="14" lengthAdjust="spacing" textLength="160" x="638.25" y="187.1826">created_on: timestamp</text><text fill="#000000" font-family="Verdana" font-size="14" lengthAdjust="spacing" textLength="267" x="638.25" y="203.4795">file_attachment_store_history_id: bigint</text><line style="stroke:#000000;stroke-width:1.0;" x1="633.25" x2="910.25" y1="210.7813" y2="210.7813"/></g><!--link document_folder to document_folder--><g id="link_document_folder_document_folder"><path codeLine="92" d="M346,781.83 C346,779.38 346,778 346,778 C346,778 328,778 328,778 C328,778 328,994 328,994 C328,994 458.75,994 458.75,994 C458.75,994 458.75,993.51 458.75,993.51 " fill="none" id="document_folder-to-document_folder" style="stroke:#595959;stroke-width:1.0;"/><polygon fill="none" points="451.75,1009.06,458.75,989.06,465.75,1009.06,451.75,1009.06" style="stroke:#595959;stroke-width:1.0;"/><text fill="#000000" font-family="Verdana" font-size="13" lengthAdjust="spacing" textLength="305" x="17" y="931.7769">parent_document_folder_id:document_folder_id</text></g><!--link document_record to document_folder--><g id="link_document_record_document_folder"><path codeLine="93" d="M458.75,714.04 C458.75,714.04 458.75,761.68 458.75,761.68 " fill="none" id="document_record-to-document_folder" style="stroke:#595959;stroke-width:1.0;"/><polygon fill="none" points="465.75,761.68,458.75,781.68,451.75,761.68,465.75,761.68" style="stroke:#595959;stroke-width:1.0;"/><text fill="#000000" font-family="Verdana" font-size="13" lengthAdjust="spacing" textLength="126" x="331.75" y="733.9269">document_folder_id</text></g><!--link document_record_attribute to document_record--><g id="link_document_record_attribute_document_record"><path codeLine="94" d="M458.75,284.2 C458.75,284.2 458.75,323.75 458.75,323.75 " fill="none" id="document_record_attribute-to-document_record" style="stroke:#595959;stroke-width:1.0;"/><polygon fill="none" points="465.75,323.75,458.75,343.75,451.75,323.75,465.75,323.75" style="stroke:#595959;stroke-width:1.0;"/><text fill="#000000" font-family="Verdana" font-size="13" lengthAdjust="spacing" textLength="131" x="326.75" y="300.0469">document_record_id</text></g><!--link file_attachment_store to file_attachment_category--><g id="link_file_attachment_store_file_attachment_category"><path codeLine="95" d="M767.25,624.54 C767.25,624.54 767.25,753.89 767.25,753.89 " fill="none" id="file_attachment_store-to-file_attachment_category" style="stroke:#595959;stroke-width:1.0;"/><polygon fill="none" points="774.25,753.89,767.25,773.89,760.25,753.89,774.25,753.89" style="stroke:#595959;stroke-width:1.0;"/><text fill="#000000" font-family="Verdana" font-size="13" lengthAdjust="spacing" textLength="259" x="768.25" y="685.2769">category_id:file_attachment_category_id</text></g><!--link file_attachment_store to file_attachment_file_type--><g id="link_file_attachment_store_file_attachment_file_type"><path codeLine="96" d="M896.25,624.67 C896.25,730.42 896.25,886 896.25,886 C896.25,886 906.58,886 906.58,886 " fill="none" id="file_attachment_store-to-file_attachment_file_type" style="stroke:#595959;stroke-width:1.0;"/><polygon fill="none" points="906.58,879,926.58,886,906.58,893,906.58,879" style="stroke:#595959;stroke-width:1.0;"/><text fill="#000000" font-family="Verdana" font-size="13" lengthAdjust="spacing" textLength="228" x="667.25" y="756.5669">type_id:file_attachment_file_type_id</text></g><!--link file_attachment_store_history to file_attachment_store--><g id="link_file_attachment_store_history_file_attachment_store"><path codeLine="97" d="M771.75,219.22 C771.75,219.22 771.75,413.33 771.75,413.33 " fill="none" id="file_attachment_store_history-to-file_attachment_store" style="stroke:#595959;stroke-width:1.0;"/><polygon fill="none" points="778.75,413.33,771.75,433.33,764.75,413.33,778.75,413.33" style="stroke:#595959;stroke-width:1.0;"/><text fill="#000000" font-family="Verdana" font-size="13" lengthAdjust="spacing" textLength="158" x="612.75" y="312.3369">file_attachment_store_id</text></g><!--SRC=[pLR1ZjiW4BtxAsXwQQLkjJtieVcLghKmJ19KmxWmjcfL_VTY4djZ0iILLglD7fATOURDFDu0x-W46bZNScKgmeuHiWQ9K3EfB0XIQ2htKvcEMwvPgmpGs053IoUiAj5ovvX4qMimL1-mbM3PduenDe1rFdZFb24uWfri4fomggDW7xWL9su_V7by_3WvFSAK8qfMAxbdZJhwBDCY1xzwC09gq-i6x2gxGGAtPmI_mr9XWHF8Ui8YfS4HrzsrendhtjqWQ9Jge59nYoSTM2ZyRqoKPnQjp1FLWTNAJUQQBC1sfAazbF3CxjEPt2BpojNSx_JWmnh45hYPh1O65If8KBtuf6SoeYdu0ajffAwpE81SOSt63BMB-s1HHt2BZp3o75GBTOk2dxkUTV5MP7BMm0QPr9p8ggOdE0kca24Zf_G6bsQfBC2beAnzu6r_nxjdRdG4-hCS3TTAdArlS8UItSvx5KJcLt1n2Z5URN14E-PdEpcVPRxJ-xUQwPaitXFMVhtrxLebA1gqr-OoHyyMAiF_uRO9NFe6mRXLizc8BUaTeRsa3Yw1Vezckq_WVoiQetuknWbZqU-LRKdc5GrHdOU-RIDxN6fGnxcAp1ZdjZL1QuAVkRLjtDGdDNqNf7mt_tznMsezgzjYvUjMg_YT4dqUlhr_-ZhzVGhFeUyFFswksYXYptRvLykjQLV53u2Ng603pjKDSXydMTerpdBjxAhqJ1NxoHwOCywrbWl7nuk0Fnyn5_1v8aidImPv6PTDoEjYFN9kbdR_0000]--></g></svg>