<?xml version="1.0" encoding="UTF-8" standalone="no"?><svg xmlns="http://www.w3.org/2000/svg" xmlns:xlink="http://www.w3.org/1999/xlink" contentStyleType="text/css" height="607px" preserveAspectRatio="none" style="width:814px;height:607px;background:#FFFFFF;" version="1.1" viewBox="0 0 814 607" width="814px" zoomAndPan="magnify"><defs/><g><!--class resource_action_customisation--><g id="elem_resource_action_customisation"><rect codeLine="5" fill="#FFFFFF" height="288.4531" id="resource_action_customisation" rx="2.5" ry="2.5" style="stroke:#000000;stroke-width:1.0;" width="273" x="205.5" y="312"/><ellipse cx="232" cy="326" fill="#FFFFFF" rx="9" ry="9" style="stroke:#000000;stroke-width:1.0;"/><path d="M234.9688,331.6406 Q234.3906,331.9375 233.75,332.0781 Q233.1094,332.2344 232.4063,332.2344 Q229.9063,332.2344 228.5781,330.5938 Q227.2656,328.9375 227.2656,325.8125 Q227.2656,322.6875 228.5781,321.0313 Q229.9063,319.375 232.4063,319.375 Q233.1094,319.375 233.75,319.5313 Q234.4063,319.6875 234.9688,319.9844 L234.9688,322.7031 Q234.3438,322.125 233.75,321.8594 Q233.1563,321.5781 232.5313,321.5781 Q231.1875,321.5781 230.5,322.6563 Q229.8125,323.7188 229.8125,325.8125 Q229.8125,327.9063 230.5,328.9844 Q231.1875,330.0469 232.5313,330.0469 Q233.1563,330.0469 233.75,329.7813 Q234.3438,329.5 234.9688,328.9219 L234.9688,331.6406 Z " fill="#000000"/><text fill="#000000" font-family="Verdana" font-size="14" lengthAdjust="spacing" textLength="215" x="247" y="330.8467">resource_action_customisation</text><line style="stroke:#000000;stroke-width:1.0;" x1="206.5" x2="477.5" y1="340" y2="340"/><text fill="#000000" font-family="Verdana" font-size="14" lengthAdjust="spacing" textLength="87" x="211.5" y="356.9951">module: text</text><text fill="#000000" font-family="Verdana" font-size="14" lengthAdjust="spacing" textLength="97" x="211.5" y="373.292">resource: text</text><text fill="#000000" font-family="Verdana" font-size="14" lengthAdjust="spacing" textLength="146" x="211.5" y="389.5889">resource_action: text</text><text fill="#000000" font-family="Verdana" font-size="14" lengthAdjust="spacing" textLength="108" x="211.5" y="405.8857">version: integer</text><text fill="#000000" font-family="Verdana" font-size="14" lengthAdjust="spacing" textLength="74" x="211.5" y="422.1826">name: text</text><text fill="#000000" font-family="Verdana" font-size="14" lengthAdjust="spacing" textLength="112" x="211.5" y="438.4795">description: text</text><text fill="#000000" font-family="Verdana" font-size="14" lengthAdjust="spacing" textLength="142" x="211.5" y="454.7764">request_body: jsonb</text><text fill="#000000" font-family="Verdana" font-size="14" lengthAdjust="spacing" textLength="154" x="211.5" y="471.0732">response_body: jsonb</text><text fill="#000000" font-family="Verdana" font-size="14" lengthAdjust="spacing" textLength="119" x="211.5" y="487.3701">is_temp: boolean</text><text fill="#000000" font-family="Verdana" font-size="14" lengthAdjust="spacing" textLength="261" x="211.5" y="503.667">restriction_level: docs.restriction_level</text><text fill="#000000" font-family="Verdana" font-size="14" lengthAdjust="spacing" textLength="160" x="211.5" y="519.9639">created_on: timestamp</text><text fill="#000000" font-family="Verdana" font-size="14" lengthAdjust="spacing" textLength="180" x="211.5" y="536.2607">created_by_user_id: bigint</text><text fill="#000000" font-family="Verdana" font-size="14" lengthAdjust="spacing" textLength="166" x="211.5" y="552.5576">modified_on: timestamp</text><text fill="#000000" font-family="Verdana" font-size="14" lengthAdjust="spacing" textLength="186" x="211.5" y="568.8545">modified_by_user_id: bigint</text><text fill="#000000" font-family="Verdana" font-size="14" lengthAdjust="spacing" textLength="163" x="211.5" y="585.1514">customisation_id: bigint</text><line style="stroke:#000000;stroke-width:1.0;" x1="206.5" x2="477.5" y1="592.4531" y2="592.4531"/></g><!--class resource_action_customisation_history--><g id="elem_resource_action_customisation_history"><rect codeLine="22" fill="#FFFFFF" height="141.7813" id="resource_action_customisation_history" rx="2.5" ry="2.5" style="stroke:#000000;stroke-width:1.0;" width="296" x="183" y="61"/><ellipse cx="196" cy="75" fill="#FFFFFF" rx="9" ry="9" style="stroke:#000000;stroke-width:1.0;"/><path d="M198.9688,80.6406 Q198.3906,80.9375 197.75,81.0781 Q197.1094,81.2344 196.4063,81.2344 Q193.9063,81.2344 192.5781,79.5938 Q191.2656,77.9375 191.2656,74.8125 Q191.2656,71.6875 192.5781,70.0313 Q193.9063,68.375 196.4063,68.375 Q197.1094,68.375 197.75,68.5313 Q198.4063,68.6875 198.9688,68.9844 L198.9688,71.7031 Q198.3438,71.125 197.75,70.8594 Q197.1563,70.5781 196.5313,70.5781 Q195.1875,70.5781 194.5,71.6563 Q193.8125,72.7188 193.8125,74.8125 Q193.8125,76.9063 194.5,77.9844 Q195.1875,79.0469 196.5313,79.0469 Q197.1563,79.0469 197.75,78.7813 Q198.3438,78.5 198.9688,77.9219 L198.9688,80.6406 Z " fill="#000000"/><text fill="#000000" font-family="Verdana" font-size="14" lengthAdjust="spacing" textLength="268" x="208" y="79.8467">resource_action_customisation_history</text><line style="stroke:#000000;stroke-width:1.0;" x1="184" x2="478" y1="89" y2="89"/><text fill="#000000" font-family="Verdana" font-size="14" lengthAdjust="spacing" textLength="281" x="189" y="105.9951">resource_action_customisation_id: bigint</text><text fill="#000000" font-family="Verdana" font-size="14" lengthAdjust="spacing" textLength="108" x="189" y="122.292">version: integer</text><text fill="#000000" font-family="Verdana" font-size="14" lengthAdjust="spacing" textLength="101" x="189" y="138.5889">content: jsonb</text><text fill="#000000" font-family="Verdana" font-size="14" lengthAdjust="spacing" textLength="166" x="189" y="154.8857">modified_on: timestamp</text><text fill="#000000" font-family="Verdana" font-size="14" lengthAdjust="spacing" textLength="186" x="189" y="171.1826">modified_by_user_id: bigint</text><text fill="#000000" font-family="Verdana" font-size="14" lengthAdjust="spacing" textLength="59" x="189" y="187.4795">id: bigint</text><line style="stroke:#000000;stroke-width:1.0;" x1="184" x2="478" y1="194.7813" y2="194.7813"/></g><!--class template_customisation--><g id="elem_template_customisation"><rect codeLine="30" fill="#FFFFFF" height="272.1563" id="template_customisation" rx="2.5" ry="2.5" style="stroke:#000000;stroke-width:1.0;" width="273" x="524.5" y="320"/><ellipse cx="574.75" cy="334" fill="#FFFFFF" rx="9" ry="9" style="stroke:#000000;stroke-width:1.0;"/><path d="M577.7188,339.6406 Q577.1406,339.9375 576.5,340.0781 Q575.8594,340.2344 575.1563,340.2344 Q572.6563,340.2344 571.3281,338.5938 Q570.0156,336.9375 570.0156,333.8125 Q570.0156,330.6875 571.3281,329.0313 Q572.6563,327.375 575.1563,327.375 Q575.8594,327.375 576.5,327.5313 Q577.1563,327.6875 577.7188,327.9844 L577.7188,330.7031 Q577.0938,330.125 576.5,329.8594 Q575.9063,329.5781 575.2813,329.5781 Q573.9375,329.5781 573.25,330.6563 Q572.5625,331.7188 572.5625,333.8125 Q572.5625,335.9063 573.25,336.9844 Q573.9375,338.0469 575.2813,338.0469 Q575.9063,338.0469 576.5,337.7813 Q577.0938,337.5 577.7188,336.9219 L577.7188,339.6406 Z " fill="#000000"/><text fill="#000000" font-family="Verdana" font-size="14" lengthAdjust="spacing" textLength="165" x="592.25" y="338.8467">template_customisation</text><line style="stroke:#000000;stroke-width:1.0;" x1="525.5" x2="796.5" y1="348" y2="348"/><text fill="#000000" font-family="Verdana" font-size="14" lengthAdjust="spacing" textLength="87" x="530.5" y="364.9951">module: text</text><text fill="#000000" font-family="Verdana" font-size="14" lengthAdjust="spacing" textLength="96" x="530.5" y="381.292">template: text</text><text fill="#000000" font-family="Verdana" font-size="14" lengthAdjust="spacing" textLength="108" x="530.5" y="397.5889">version: integer</text><text fill="#000000" font-family="Verdana" font-size="14" lengthAdjust="spacing" textLength="74" x="530.5" y="413.8857">name: text</text><text fill="#000000" font-family="Verdana" font-size="14" lengthAdjust="spacing" textLength="112" x="530.5" y="430.1826">description: text</text><text fill="#000000" font-family="Verdana" font-size="14" lengthAdjust="spacing" textLength="65" x="530.5" y="446.4795">type: text</text><text fill="#000000" font-family="Verdana" font-size="14" lengthAdjust="spacing" textLength="101" x="530.5" y="462.7764">content: jsonb</text><text fill="#000000" font-family="Verdana" font-size="14" lengthAdjust="spacing" textLength="119" x="530.5" y="479.0732">is_temp: boolean</text><text fill="#000000" font-family="Verdana" font-size="14" lengthAdjust="spacing" textLength="261" x="530.5" y="495.3701">restriction_level: docs.restriction_level</text><text fill="#000000" font-family="Verdana" font-size="14" lengthAdjust="spacing" textLength="160" x="530.5" y="511.667">created_on: timestamp</text><text fill="#000000" font-family="Verdana" font-size="14" lengthAdjust="spacing" textLength="180" x="530.5" y="527.9639">created_by_user_id: bigint</text><text fill="#000000" font-family="Verdana" font-size="14" lengthAdjust="spacing" textLength="166" x="530.5" y="544.2607">modified_on: timestamp</text><text fill="#000000" font-family="Verdana" font-size="14" lengthAdjust="spacing" textLength="186" x="530.5" y="560.5576">modified_by_user_id: bigint</text><text fill="#000000" font-family="Verdana" font-size="14" lengthAdjust="spacing" textLength="163" x="530.5" y="576.8545">customisation_id: bigint</text><line style="stroke:#000000;stroke-width:1.0;" x1="525.5" x2="796.5" y1="584.1563" y2="584.1563"/></g><!--class template_resource--><g id="elem_template_resource"><rect codeLine="46" fill="#FFFFFF" height="239.5625" id="template_resource" rx="2.5" ry="2.5" style="stroke:#000000;stroke-width:1.0;" width="293" x="514.5" y="12"/><ellipse cx="592.25" cy="26" fill="#FFFFFF" rx="9" ry="9" style="stroke:#000000;stroke-width:1.0;"/><path d="M595.2188,31.6406 Q594.6406,31.9375 594,32.0781 Q593.3594,32.2344 592.6563,32.2344 Q590.1563,32.2344 588.8281,30.5938 Q587.5156,28.9375 587.5156,25.8125 Q587.5156,22.6875 588.8281,21.0313 Q590.1563,19.375 592.6563,19.375 Q593.3594,19.375 594,19.5313 Q594.6563,19.6875 595.2188,19.9844 L595.2188,22.7031 Q594.5938,22.125 594,21.8594 Q593.4063,21.5781 592.7813,21.5781 Q591.4375,21.5781 590.75,22.6563 Q590.0625,23.7188 590.0625,25.8125 Q590.0625,27.9063 590.75,28.9844 Q591.4375,30.0469 592.7813,30.0469 Q593.4063,30.0469 594,29.7813 Q594.5938,29.5 595.2188,28.9219 L595.2188,31.6406 Z " fill="#000000"/><text fill="#000000" font-family="Verdana" font-size="14" lengthAdjust="spacing" textLength="130" x="609.75" y="30.8467">template_resource</text><line style="stroke:#000000;stroke-width:1.0;" x1="515.5" x2="806.5" y1="40" y2="40"/><text fill="#000000" font-family="Verdana" font-size="14" lengthAdjust="spacing" textLength="87" x="520.5" y="56.9951">module: text</text><text fill="#000000" font-family="Verdana" font-size="14" lengthAdjust="spacing" textLength="97" x="520.5" y="73.292">resource: text</text><text fill="#000000" font-family="Verdana" font-size="14" lengthAdjust="spacing" textLength="146" x="520.5" y="89.5889">resource_action: text</text><text fill="#000000" font-family="Verdana" font-size="14" lengthAdjust="spacing" textLength="281" x="520.5" y="105.8857">resource_action_customisation_id: bigint</text><text fill="#000000" font-family="Verdana" font-size="14" lengthAdjust="spacing" textLength="96" x="520.5" y="122.1826">template: text</text><text fill="#000000" font-family="Verdana" font-size="14" lengthAdjust="spacing" textLength="231" x="520.5" y="138.4795">template_customisation_id: bigint</text><text fill="#000000" font-family="Verdana" font-size="14" lengthAdjust="spacing" textLength="108" x="520.5" y="154.7764">version: integer</text><text fill="#000000" font-family="Verdana" font-size="14" lengthAdjust="spacing" textLength="160" x="520.5" y="171.0732">created_on: timestamp</text><text fill="#000000" font-family="Verdana" font-size="14" lengthAdjust="spacing" textLength="180" x="520.5" y="187.3701">created_by_user_id: bigint</text><text fill="#000000" font-family="Verdana" font-size="14" lengthAdjust="spacing" textLength="166" x="520.5" y="203.667">modified_on: timestamp</text><text fill="#000000" font-family="Verdana" font-size="14" lengthAdjust="spacing" textLength="186" x="520.5" y="219.9639">modified_by_user_id: bigint</text><text fill="#000000" font-family="Verdana" font-size="14" lengthAdjust="spacing" textLength="196" x="520.5" y="236.2607">template_resource_id: bigint</text><line style="stroke:#000000;stroke-width:1.0;" x1="515.5" x2="806.5" y1="243.5625" y2="243.5625"/></g><!--link resource_action_customisation_history to resource_action_customisation--><g id="link_resource_action_customisation_history_resource_action_customisation"><path codeLine="61" d="M342,203.1 C342,203.1 342,291.94 342,291.94 " fill="none" id="resource_action_customisation_history-to-resource_action_customisation" style="stroke:#595959;stroke-width:1.0;"/><polygon fill="none" points="349,291.94,342,311.94,335,291.94,349,291.94" style="stroke:#595959;stroke-width:1.0;"/><text fill="#000000" font-family="Verdana" font-size="13" lengthAdjust="spacing" textLength="329" x="12" y="243.5869">resource_action_customisation_id:customisation_id</text></g><!--link template_resource to resource_action_customisation--><g id="link_template_resource_resource_action_customisation"><path codeLine="62" d="M519.5,252.16 C519.5,287.08 519.5,316 519.5,316 C519.5,316 498.78,316 498.78,316 " fill="none" id="template_resource-to-resource_action_customisation" style="stroke:#595959;stroke-width:1.0;"/><polygon fill="none" points="498.78,323,478.78,316,498.78,309,498.78,323" style="stroke:#595959;stroke-width:1.0;"/><text fill="#000000" font-family="Verdana" font-size="13" lengthAdjust="spacing" textLength="329" x="189.5" y="290.5069">resource_action_customisation_id:customisation_id</text></g><!--link template_resource to template_customisation--><g id="link_template_resource_template_customisation"><path codeLine="63" d="M661,252.19 C661,252.19 661,299.91 661,299.91 " fill="none" id="template_resource-to-template_customisation" style="stroke:#595959;stroke-width:1.0;"/><polygon fill="none" points="668,299.91,661,319.91,654,299.91,668,299.91" style="stroke:#595959;stroke-width:1.0;"/><text fill="#000000" font-family="Verdana" font-size="13" lengthAdjust="spacing" textLength="285" x="375" y="272.1169">template_customisation_id:customisation_id</text></g><!--SRC=[tLJBJiCm4BpdAvPofTmua5z1O3dEqYxuXRsfY13_ZfCcRTgaD8241Cub-x9tPyQ-u3KQ1AybsOoT1tPGE6PdeAI0YidPB3wJzJ980veiSkqHNE2ropAbPOmGCBegA1IopHUgYca3YhAnu2q30EFAIcCEZA_Ss7t9sDDjiWziCCJMGPPnXQ7nMMa6fIL65SWVbWLygJ2oA5nPv_0KdIswOxop4O_z50MZyNcQtccKjilbGDkPD6vGvr0w5Qz7_YPP1PICfMXx89DIfF73G56BAc8GLAP3Q9McwO2XHvggsqMc2mz07iRUvx0YrfIiK6_P-JpryDmfEfHB_vO7S7vxh8b16bvqWd2EhlhS7ykdKVdU6W_u__IoWxbNmuzlxbTaDIPkclOvQlnbP4V07QARpRk8iBoxlBbjlglsDRvVFfn14FgLm-8irCUEHJRcUtBzeRPEF1H7AxLrMbgZVZu0]--></g></svg>