<?xml version="1.0" encoding="UTF-8" standalone="no"?><svg xmlns="http://www.w3.org/2000/svg" xmlns:xlink="http://www.w3.org/1999/xlink" contentStyleType="text/css" height="655px" preserveAspectRatio="none" style="width:1200px;height:655px;background:#FFFFFF;" version="1.1" viewBox="0 0 1200 655" width="1200px" zoomAndPan="magnify"><defs/><g><!--class asset_importance--><g id="elem_asset_importance"><rect codeLine="5" fill="#FFFFFF" height="255.8594" id="asset_importance" rx="2.5" ry="2.5" style="stroke:#000000;stroke-width:1.0;" width="201" x="45.5" y="368.5"/><ellipse cx="81" cy="382.5" fill="#FFFFFF" rx="9" ry="9" style="stroke:#000000;stroke-width:1.0;"/><path d="M83.9688,388.1406 Q83.3906,388.4375 82.75,388.5781 Q82.1094,388.7344 81.4063,388.7344 Q78.9063,388.7344 77.5781,387.0938 Q76.2656,385.4375 76.2656,382.3125 Q76.2656,379.1875 77.5781,377.5313 Q78.9063,375.875 81.4063,375.875 Q82.1094,375.875 82.75,376.0313 Q83.4063,376.1875 83.9688,376.4844 L83.9688,379.2031 Q83.3438,378.625 82.75,378.3594 Q82.1563,378.0781 81.5313,378.0781 Q80.1875,378.0781 79.5,379.1563 Q78.8125,380.2188 78.8125,382.3125 Q78.8125,384.4063 79.5,385.4844 Q80.1875,386.5469 81.5313,386.5469 Q82.1563,386.5469 82.75,386.2813 Q83.3438,386 83.9688,385.4219 L83.9688,388.1406 Z " fill="#000000"/><text fill="#000000" font-family="Verdana" font-size="14" lengthAdjust="spacing" textLength="123" x="98" y="387.3467">asset_importance</text><line style="stroke:#000000;stroke-width:1.0;" x1="46.5" x2="245.5" y1="396.5" y2="396.5"/><text fill="#000000" font-family="Verdana" font-size="14" lengthAdjust="spacing" textLength="177" x="51.5" y="413.4951">permission_tree_id: bigint</text><text fill="#000000" font-family="Verdana" font-size="14" lengthAdjust="spacing" textLength="108" x="51.5" y="429.792">version: integer</text><text fill="#000000" font-family="Verdana" font-size="14" lengthAdjust="spacing" textLength="123" x="51.5" y="446.0889">is_active: boolean</text><text fill="#000000" font-family="Verdana" font-size="14" lengthAdjust="spacing" textLength="189" x="51.5" y="462.3857">sequence_number: integer</text><text fill="#000000" font-family="Verdana" font-size="14" lengthAdjust="spacing" textLength="104" x="51.5" y="478.6826">weight: integer</text><text fill="#000000" font-family="Verdana" font-size="14" lengthAdjust="spacing" textLength="75" x="51.5" y="494.9795">notes: text</text><text fill="#000000" font-family="Verdana" font-size="14" lengthAdjust="spacing" textLength="160" x="51.5" y="511.2764">created_on: timestamp</text><text fill="#000000" font-family="Verdana" font-size="14" lengthAdjust="spacing" textLength="180" x="51.5" y="527.5732">created_by_user_id: bigint</text><text fill="#000000" font-family="Verdana" font-size="14" lengthAdjust="spacing" textLength="166" x="51.5" y="543.8701">modified_on: timestamp</text><text fill="#000000" font-family="Verdana" font-size="14" lengthAdjust="spacing" textLength="186" x="51.5" y="560.167">modified_by_user_id: bigint</text><text fill="#000000" font-family="Verdana" font-size="14" lengthAdjust="spacing" textLength="189" x="51.5" y="576.4639">asset_importance_id: bigint</text><line style="stroke:#000000;stroke-width:1.0;" x1="46.5" x2="245.5" y1="583.7656" y2="583.7656"/><text fill="#000000" font-family="Verdana" font-size="14" lengthAdjust="spacing" textLength="122" x="51.5" y="600.7607">code: varchar(50)</text><text fill="#000000" font-family="Verdana" font-size="14" lengthAdjust="spacing" textLength="173" x="51.5" y="617.0576">description: varchar(100)</text></g><!--class risk_consequence--><g id="elem_risk_consequence"><rect codeLine="20" fill="#FFFFFF" height="272.1563" id="risk_consequence" rx="2.5" ry="2.5" style="stroke:#000000;stroke-width:1.0;" width="272" x="921" y="12"/><ellipse cx="989.75" cy="26" fill="#FFFFFF" rx="9" ry="9" style="stroke:#000000;stroke-width:1.0;"/><path d="M992.7188,31.6406 Q992.1406,31.9375 991.5,32.0781 Q990.8594,32.2344 990.1563,32.2344 Q987.6563,32.2344 986.3281,30.5938 Q985.0156,28.9375 985.0156,25.8125 Q985.0156,22.6875 986.3281,21.0313 Q987.6563,19.375 990.1563,19.375 Q990.8594,19.375 991.5,19.5313 Q992.1563,19.6875 992.7188,19.9844 L992.7188,22.7031 Q992.0938,22.125 991.5,21.8594 Q990.9063,21.5781 990.2813,21.5781 Q988.9375,21.5781 988.25,22.6563 Q987.5625,23.7188 987.5625,25.8125 Q987.5625,27.9063 988.25,28.9844 Q988.9375,30.0469 990.2813,30.0469 Q990.9063,30.0469 991.5,29.7813 Q992.0938,29.5 992.7188,28.9219 L992.7188,31.6406 Z " fill="#000000"/><text fill="#000000" font-family="Verdana" font-size="14" lengthAdjust="spacing" textLength="127" x="1007.25" y="30.8467">risk_consequence</text><line style="stroke:#000000;stroke-width:1.0;" x1="922" x2="1192" y1="40" y2="40"/><text fill="#000000" font-family="Verdana" font-size="14" lengthAdjust="spacing" textLength="108" x="927" y="56.9951">version: integer</text><text fill="#000000" font-family="Verdana" font-size="14" lengthAdjust="spacing" textLength="123" x="927" y="73.292">is_active: boolean</text><text fill="#000000" font-family="Verdana" font-size="14" lengthAdjust="spacing" textLength="177" x="927" y="89.5889">permission_tree_id: bigint</text><text fill="#000000" font-family="Verdana" font-size="14" lengthAdjust="spacing" textLength="189" x="927" y="105.8857">sequence_number: integer</text><text fill="#000000" font-family="Verdana" font-size="14" lengthAdjust="spacing" textLength="260" x="927" y="122.1826">risk_consequence_category_id: bigint</text><text fill="#000000" font-family="Verdana" font-size="14" lengthAdjust="spacing" textLength="75" x="927" y="138.4795">notes: text</text><text fill="#000000" font-family="Verdana" font-size="14" lengthAdjust="spacing" textLength="160" x="927" y="154.7764">created_on: timestamp</text><text fill="#000000" font-family="Verdana" font-size="14" lengthAdjust="spacing" textLength="180" x="927" y="171.0732">created_by_user_id: bigint</text><text fill="#000000" font-family="Verdana" font-size="14" lengthAdjust="spacing" textLength="166" x="927" y="187.3701">modified_on: timestamp</text><text fill="#000000" font-family="Verdana" font-size="14" lengthAdjust="spacing" textLength="186" x="927" y="203.667">modified_by_user_id: bigint</text><text fill="#000000" font-family="Verdana" font-size="14" lengthAdjust="spacing" textLength="193" x="927" y="219.9639">risk_consequence_id: bigint</text><line style="stroke:#000000;stroke-width:1.0;" x1="922" x2="1192" y1="227.2656" y2="227.2656"/><text fill="#000000" font-family="Verdana" font-size="14" lengthAdjust="spacing" textLength="122" x="927" y="244.2607">code: varchar(50)</text><text fill="#000000" font-family="Verdana" font-size="14" lengthAdjust="spacing" textLength="173" x="927" y="260.5576">description: varchar(100)</text><text fill="#000000" font-family="Verdana" font-size="14" lengthAdjust="spacing" textLength="142" x="927" y="276.8545">value: numeric(19,3)</text></g><!--class risk_consequence_category--><g id="elem_risk_consequence_category"><rect codeLine="36" fill="#FFFFFF" height="239.5625" id="risk_consequence_category" rx="2.5" ry="2.5" style="stroke:#000000;stroke-width:1.0;" width="272" x="910" y="376.5"/><ellipse cx="945.5" cy="390.5" fill="#FFFFFF" rx="9" ry="9" style="stroke:#000000;stroke-width:1.0;"/><path d="M948.4688,396.1406 Q947.8906,396.4375 947.25,396.5781 Q946.6094,396.7344 945.9063,396.7344 Q943.4063,396.7344 942.0781,395.0938 Q940.7656,393.4375 940.7656,390.3125 Q940.7656,387.1875 942.0781,385.5313 Q943.4063,383.875 945.9063,383.875 Q946.6094,383.875 947.25,384.0313 Q947.9063,384.1875 948.4688,384.4844 L948.4688,387.2031 Q947.8438,386.625 947.25,386.3594 Q946.6563,386.0781 946.0313,386.0781 Q944.6875,386.0781 944,387.1563 Q943.3125,388.2188 943.3125,390.3125 Q943.3125,392.4063 944,393.4844 Q944.6875,394.5469 946.0313,394.5469 Q946.6563,394.5469 947.25,394.2813 Q947.8438,394 948.4688,393.4219 L948.4688,396.1406 Z " fill="#000000"/><text fill="#000000" font-family="Verdana" font-size="14" lengthAdjust="spacing" textLength="194" x="962.5" y="395.3467">risk_consequence_category</text><line style="stroke:#000000;stroke-width:1.0;" x1="911" x2="1181" y1="404.5" y2="404.5"/><text fill="#000000" font-family="Verdana" font-size="14" lengthAdjust="spacing" textLength="108" x="916" y="421.4951">version: integer</text><text fill="#000000" font-family="Verdana" font-size="14" lengthAdjust="spacing" textLength="123" x="916" y="437.792">is_active: boolean</text><text fill="#000000" font-family="Verdana" font-size="14" lengthAdjust="spacing" textLength="177" x="916" y="454.0889">permission_tree_id: bigint</text><text fill="#000000" font-family="Verdana" font-size="14" lengthAdjust="spacing" textLength="189" x="916" y="470.3857">sequence_number: integer</text><text fill="#000000" font-family="Verdana" font-size="14" lengthAdjust="spacing" textLength="75" x="916" y="486.6826">notes: text</text><text fill="#000000" font-family="Verdana" font-size="14" lengthAdjust="spacing" textLength="160" x="916" y="502.9795">created_on: timestamp</text><text fill="#000000" font-family="Verdana" font-size="14" lengthAdjust="spacing" textLength="180" x="916" y="519.2764">created_by_user_id: bigint</text><text fill="#000000" font-family="Verdana" font-size="14" lengthAdjust="spacing" textLength="166" x="916" y="535.5732">modified_on: timestamp</text><text fill="#000000" font-family="Verdana" font-size="14" lengthAdjust="spacing" textLength="186" x="916" y="551.8701">modified_by_user_id: bigint</text><text fill="#000000" font-family="Verdana" font-size="14" lengthAdjust="spacing" textLength="260" x="916" y="568.167">risk_consequence_category_id: bigint</text><line style="stroke:#000000;stroke-width:1.0;" x1="911" x2="1181" y1="575.4688" y2="575.4688"/><text fill="#000000" font-family="Verdana" font-size="14" lengthAdjust="spacing" textLength="122" x="916" y="592.4639">code: varchar(50)</text><text fill="#000000" font-family="Verdana" font-size="14" lengthAdjust="spacing" textLength="173" x="916" y="608.7607">description: varchar(100)</text></g><!--class risk_model--><g id="elem_risk_model"><rect codeLine="50" fill="#FFFFFF" height="304.75" id="risk_model" rx="2.5" ry="2.5" style="stroke:#000000;stroke-width:1.0;" width="331" x="533.5" y="344"/><ellipse cx="658.25" cy="358" fill="#FFFFFF" rx="9" ry="9" style="stroke:#000000;stroke-width:1.0;"/><path d="M661.2188,363.6406 Q660.6406,363.9375 660,364.0781 Q659.3594,364.2344 658.6563,364.2344 Q656.1563,364.2344 654.8281,362.5938 Q653.5156,360.9375 653.5156,357.8125 Q653.5156,354.6875 654.8281,353.0313 Q656.1563,351.375 658.6563,351.375 Q659.3594,351.375 660,351.5313 Q660.6563,351.6875 661.2188,351.9844 L661.2188,354.7031 Q660.5938,354.125 660,353.8594 Q659.4063,353.5781 658.7813,353.5781 Q657.4375,353.5781 656.75,354.6563 Q656.0625,355.7188 656.0625,357.8125 Q656.0625,359.9063 656.75,360.9844 Q657.4375,362.0469 658.7813,362.0469 Q659.4063,362.0469 660,361.7813 Q660.5938,361.5 661.2188,360.9219 L661.2188,363.6406 Z " fill="#000000"/><text fill="#000000" font-family="Verdana" font-size="14" lengthAdjust="spacing" textLength="74" x="675.75" y="362.8467">risk_model</text><line style="stroke:#000000;stroke-width:1.0;" x1="534.5" x2="863.5" y1="372" y2="372"/><text fill="#000000" font-family="Verdana" font-size="14" lengthAdjust="spacing" textLength="108" x="539.5" y="388.9951">version: integer</text><text fill="#000000" font-family="Verdana" font-size="14" lengthAdjust="spacing" textLength="123" x="539.5" y="405.292">is_active: boolean</text><text fill="#000000" font-family="Verdana" font-size="14" lengthAdjust="spacing" textLength="232" x="539.5" y="421.5889">importances_configured: boolean</text><text fill="#000000" font-family="Verdana" font-size="14" lengthAdjust="spacing" textLength="262" x="539.5" y="437.8857">importances_ranges_verified: boolean</text><text fill="#000000" font-family="Verdana" font-size="14" lengthAdjust="spacing" textLength="177" x="539.5" y="454.1826">permission_tree_id: bigint</text><text fill="#000000" font-family="Verdana" font-size="14" lengthAdjust="spacing" textLength="189" x="539.5" y="470.4795">sequence_number: integer</text><text fill="#000000" font-family="Verdana" font-size="14" lengthAdjust="spacing" textLength="319" x="539.5" y="486.7764">risk_calculation_type: risk.risk_calculation_type</text><text fill="#000000" font-family="Verdana" font-size="14" lengthAdjust="spacing" textLength="83" x="539.5" y="503.0732">reason: text</text><text fill="#000000" font-family="Verdana" font-size="14" lengthAdjust="spacing" textLength="75" x="539.5" y="519.3701">notes: text</text><text fill="#000000" font-family="Verdana" font-size="14" lengthAdjust="spacing" textLength="160" x="539.5" y="535.667">created_on: timestamp</text><text fill="#000000" font-family="Verdana" font-size="14" lengthAdjust="spacing" textLength="180" x="539.5" y="551.9639">created_by_user_id: bigint</text><text fill="#000000" font-family="Verdana" font-size="14" lengthAdjust="spacing" textLength="166" x="539.5" y="568.2607">modified_on: timestamp</text><text fill="#000000" font-family="Verdana" font-size="14" lengthAdjust="spacing" textLength="186" x="539.5" y="584.5576">modified_by_user_id: bigint</text><text fill="#000000" font-family="Verdana" font-size="14" lengthAdjust="spacing" textLength="140" x="539.5" y="600.8545">risk_model_id: bigint</text><line style="stroke:#000000;stroke-width:1.0;" x1="534.5" x2="863.5" y1="608.1563" y2="608.1563"/><text fill="#000000" font-family="Verdana" font-size="14" lengthAdjust="spacing" textLength="122" x="539.5" y="625.1514">code: varchar(50)</text><text fill="#000000" font-family="Verdana" font-size="14" lengthAdjust="spacing" textLength="173" x="539.5" y="641.4482">description: varchar(100)</text></g><!--class risk_model_consequence_category--><g id="elem_risk_model_consequence_category"><rect codeLine="68" fill="#FFFFFF" height="239.5625" id="risk_model_consequence_category" rx="2.5" ry="2.5" style="stroke:#000000;stroke-width:1.0;" width="322" x="564" y="28"/><ellipse cx="599.5" cy="42" fill="#FFFFFF" rx="9" ry="9" style="stroke:#000000;stroke-width:1.0;"/><path d="M602.4688,47.6406 Q601.8906,47.9375 601.25,48.0781 Q600.6094,48.2344 599.9063,48.2344 Q597.4063,48.2344 596.0781,46.5938 Q594.7656,44.9375 594.7656,41.8125 Q594.7656,38.6875 596.0781,37.0313 Q597.4063,35.375 599.9063,35.375 Q600.6094,35.375 601.25,35.5313 Q601.9063,35.6875 602.4688,35.9844 L602.4688,38.7031 Q601.8438,38.125 601.25,37.8594 Q600.6563,37.5781 600.0313,37.5781 Q598.6875,37.5781 598,38.6563 Q597.3125,39.7188 597.3125,41.8125 Q597.3125,43.9063 598,44.9844 Q598.6875,46.0469 600.0313,46.0469 Q600.6563,46.0469 601.25,45.7813 Q601.8438,45.5 602.4688,44.9219 L602.4688,47.6406 Z " fill="#000000"/><text fill="#000000" font-family="Verdana" font-size="14" lengthAdjust="spacing" textLength="244" x="616.5" y="46.8467">risk_model_consequence_category</text><line style="stroke:#000000;stroke-width:1.0;" x1="565" x2="885" y1="56" y2="56"/><text fill="#000000" font-family="Verdana" font-size="14" lengthAdjust="spacing" textLength="108" x="570" y="72.9951">version: integer</text><text fill="#000000" font-family="Verdana" font-size="14" lengthAdjust="spacing" textLength="140" x="570" y="89.292">risk_model_id: bigint</text><text fill="#000000" font-family="Verdana" font-size="14" lengthAdjust="spacing" textLength="260" x="570" y="105.5889">risk_consequence_category_id: bigint</text><text fill="#000000" font-family="Verdana" font-size="14" lengthAdjust="spacing" textLength="177" x="570" y="121.8857">permission_tree_id: bigint</text><text fill="#000000" font-family="Verdana" font-size="14" lengthAdjust="spacing" textLength="189" x="570" y="138.1826">sequence_number: integer</text><text fill="#000000" font-family="Verdana" font-size="14" lengthAdjust="spacing" textLength="75" x="570" y="154.4795">notes: text</text><text fill="#000000" font-family="Verdana" font-size="14" lengthAdjust="spacing" textLength="160" x="570" y="170.7764">created_on: timestamp</text><text fill="#000000" font-family="Verdana" font-size="14" lengthAdjust="spacing" textLength="180" x="570" y="187.0732">created_by_user_id: bigint</text><text fill="#000000" font-family="Verdana" font-size="14" lengthAdjust="spacing" textLength="166" x="570" y="203.3701">modified_on: timestamp</text><text fill="#000000" font-family="Verdana" font-size="14" lengthAdjust="spacing" textLength="186" x="570" y="219.667">modified_by_user_id: bigint</text><text fill="#000000" font-family="Verdana" font-size="14" lengthAdjust="spacing" textLength="310" x="570" y="235.9639">risk_model_consequence_category_id: bigint</text><line style="stroke:#000000;stroke-width:1.0;" x1="565" x2="885" y1="243.2656" y2="243.2656"/><text fill="#000000" font-family="Verdana" font-size="14" lengthAdjust="spacing" textLength="195" x="570" y="260.2607">weight_value: numeric(19,3)</text></g><!--class risk_model_importance--><g id="elem_risk_model_importance"><rect codeLine="82" fill="#FFFFFF" height="255.8594" id="risk_model_importance" rx="2.5" ry="2.5" style="stroke:#000000;stroke-width:1.0;" width="237" x="27.5" y="20"/><ellipse cx="63" cy="34" fill="#FFFFFF" rx="9" ry="9" style="stroke:#000000;stroke-width:1.0;"/><path d="M65.9688,39.6406 Q65.3906,39.9375 64.75,40.0781 Q64.1094,40.2344 63.4063,40.2344 Q60.9063,40.2344 59.5781,38.5938 Q58.2656,36.9375 58.2656,33.8125 Q58.2656,30.6875 59.5781,29.0313 Q60.9063,27.375 63.4063,27.375 Q64.1094,27.375 64.75,27.5313 Q65.4063,27.6875 65.9688,27.9844 L65.9688,30.7031 Q65.3438,30.125 64.75,29.8594 Q64.1563,29.5781 63.5313,29.5781 Q62.1875,29.5781 61.5,30.6563 Q60.8125,31.7188 60.8125,33.8125 Q60.8125,35.9063 61.5,36.9844 Q62.1875,38.0469 63.5313,38.0469 Q64.1563,38.0469 64.75,37.7813 Q65.3438,37.5 65.9688,36.9219 L65.9688,39.6406 Z " fill="#000000"/><text fill="#000000" font-family="Verdana" font-size="14" lengthAdjust="spacing" textLength="159" x="80" y="38.8467">risk_model_importance</text><line style="stroke:#000000;stroke-width:1.0;" x1="28.5" x2="263.5" y1="48" y2="48"/><text fill="#000000" font-family="Verdana" font-size="14" lengthAdjust="spacing" textLength="108" x="33.5" y="64.9951">version: integer</text><text fill="#000000" font-family="Verdana" font-size="14" lengthAdjust="spacing" textLength="177" x="33.5" y="81.292">permission_tree_id: bigint</text><text fill="#000000" font-family="Verdana" font-size="14" lengthAdjust="spacing" textLength="140" x="33.5" y="97.5889">risk_model_id: bigint</text><text fill="#000000" font-family="Verdana" font-size="14" lengthAdjust="spacing" textLength="189" x="33.5" y="113.8857">asset_importance_id: bigint</text><text fill="#000000" font-family="Verdana" font-size="14" lengthAdjust="spacing" textLength="189" x="33.5" y="130.1826">sequence_number: integer</text><text fill="#000000" font-family="Verdana" font-size="14" lengthAdjust="spacing" textLength="75" x="33.5" y="146.4795">notes: text</text><text fill="#000000" font-family="Verdana" font-size="14" lengthAdjust="spacing" textLength="160" x="33.5" y="162.7764">created_on: timestamp</text><text fill="#000000" font-family="Verdana" font-size="14" lengthAdjust="spacing" textLength="180" x="33.5" y="179.0732">created_by_user_id: bigint</text><text fill="#000000" font-family="Verdana" font-size="14" lengthAdjust="spacing" textLength="166" x="33.5" y="195.3701">modified_on: timestamp</text><text fill="#000000" font-family="Verdana" font-size="14" lengthAdjust="spacing" textLength="186" x="33.5" y="211.667">modified_by_user_id: bigint</text><text fill="#000000" font-family="Verdana" font-size="14" lengthAdjust="spacing" textLength="225" x="33.5" y="227.9639">risk_model_importance_id: bigint</text><line style="stroke:#000000;stroke-width:1.0;" x1="28.5" x2="263.5" y1="235.2656" y2="235.2656"/><text fill="#000000" font-family="Verdana" font-size="14" lengthAdjust="spacing" textLength="203" x="33.5" y="252.2607">bottom_range: numeric(19,3)</text><text fill="#000000" font-family="Verdana" font-size="14" lengthAdjust="spacing" textLength="176" x="33.5" y="268.5576">top_range: numeric(19,3)</text></g><!--class risk_model_probability--><g id="elem_risk_model_probability"><rect codeLine="97" fill="#FFFFFF" height="223.2656" id="risk_model_probability" rx="2.5" ry="2.5" style="stroke:#000000;stroke-width:1.0;" width="229" x="299.5" y="36.5"/><ellipse cx="335" cy="50.5" fill="#FFFFFF" rx="9" ry="9" style="stroke:#000000;stroke-width:1.0;"/><path d="M337.9688,56.1406 Q337.3906,56.4375 336.75,56.5781 Q336.1094,56.7344 335.4063,56.7344 Q332.9063,56.7344 331.5781,55.0938 Q330.2656,53.4375 330.2656,50.3125 Q330.2656,47.1875 331.5781,45.5313 Q332.9063,43.875 335.4063,43.875 Q336.1094,43.875 336.75,44.0313 Q337.4063,44.1875 337.9688,44.4844 L337.9688,47.2031 Q337.3438,46.625 336.75,46.3594 Q336.1563,46.0781 335.5313,46.0781 Q334.1875,46.0781 333.5,47.1563 Q332.8125,48.2188 332.8125,50.3125 Q332.8125,52.4063 333.5,53.4844 Q334.1875,54.5469 335.5313,54.5469 Q336.1563,54.5469 336.75,54.2813 Q337.3438,54 337.9688,53.4219 L337.9688,56.1406 Z " fill="#000000"/><text fill="#000000" font-family="Verdana" font-size="14" lengthAdjust="spacing" textLength="151" x="352" y="55.3467">risk_model_probability</text><line style="stroke:#000000;stroke-width:1.0;" x1="300.5" x2="527.5" y1="64.5" y2="64.5"/><text fill="#000000" font-family="Verdana" font-size="14" lengthAdjust="spacing" textLength="108" x="305.5" y="81.4951">version: integer</text><text fill="#000000" font-family="Verdana" font-size="14" lengthAdjust="spacing" textLength="177" x="305.5" y="97.792">permission_tree_id: bigint</text><text fill="#000000" font-family="Verdana" font-size="14" lengthAdjust="spacing" textLength="140" x="305.5" y="114.0889">risk_model_id: bigint</text><text fill="#000000" font-family="Verdana" font-size="14" lengthAdjust="spacing" textLength="167" x="305.5" y="130.3857">risk_probability_id: bigint</text><text fill="#000000" font-family="Verdana" font-size="14" lengthAdjust="spacing" textLength="189" x="305.5" y="146.6826">sequence_number: integer</text><text fill="#000000" font-family="Verdana" font-size="14" lengthAdjust="spacing" textLength="75" x="305.5" y="162.9795">notes: text</text><text fill="#000000" font-family="Verdana" font-size="14" lengthAdjust="spacing" textLength="160" x="305.5" y="179.2764">created_on: timestamp</text><text fill="#000000" font-family="Verdana" font-size="14" lengthAdjust="spacing" textLength="180" x="305.5" y="195.5732">created_by_user_id: bigint</text><text fill="#000000" font-family="Verdana" font-size="14" lengthAdjust="spacing" textLength="166" x="305.5" y="211.8701">modified_on: timestamp</text><text fill="#000000" font-family="Verdana" font-size="14" lengthAdjust="spacing" textLength="186" x="305.5" y="228.167">modified_by_user_id: bigint</text><text fill="#000000" font-family="Verdana" font-size="14" lengthAdjust="spacing" textLength="217" x="305.5" y="244.4639">risk_model_probability_id: bigint</text><line style="stroke:#000000;stroke-width:1.0;" x1="300.5" x2="527.5" y1="251.7656" y2="251.7656"/></g><!--class risk_probability--><g id="elem_risk_probability"><rect codeLine="110" fill="#FFFFFF" height="255.8594" id="risk_probability" rx="2.5" ry="2.5" style="stroke:#000000;stroke-width:1.0;" width="201" x="297.5" y="368.5"/><ellipse cx="343.75" cy="382.5" fill="#FFFFFF" rx="9" ry="9" style="stroke:#000000;stroke-width:1.0;"/><path d="M346.7188,388.1406 Q346.1406,388.4375 345.5,388.5781 Q344.8594,388.7344 344.1563,388.7344 Q341.6563,388.7344 340.3281,387.0938 Q339.0156,385.4375 339.0156,382.3125 Q339.0156,379.1875 340.3281,377.5313 Q341.6563,375.875 344.1563,375.875 Q344.8594,375.875 345.5,376.0313 Q346.1563,376.1875 346.7188,376.4844 L346.7188,379.2031 Q346.0938,378.625 345.5,378.3594 Q344.9063,378.0781 344.2813,378.0781 Q342.9375,378.0781 342.25,379.1563 Q341.5625,380.2188 341.5625,382.3125 Q341.5625,384.4063 342.25,385.4844 Q342.9375,386.5469 344.2813,386.5469 Q344.9063,386.5469 345.5,386.2813 Q346.0938,386 346.7188,385.4219 L346.7188,388.1406 Z " fill="#000000"/><text fill="#000000" font-family="Verdana" font-size="14" lengthAdjust="spacing" textLength="101" x="361.25" y="387.3467">risk_probability</text><line style="stroke:#000000;stroke-width:1.0;" x1="298.5" x2="497.5" y1="396.5" y2="396.5"/><text fill="#000000" font-family="Verdana" font-size="14" lengthAdjust="spacing" textLength="108" x="303.5" y="413.4951">version: integer</text><text fill="#000000" font-family="Verdana" font-size="14" lengthAdjust="spacing" textLength="123" x="303.5" y="429.792">is_active: boolean</text><text fill="#000000" font-family="Verdana" font-size="14" lengthAdjust="spacing" textLength="177" x="303.5" y="446.0889">permission_tree_id: bigint</text><text fill="#000000" font-family="Verdana" font-size="14" lengthAdjust="spacing" textLength="189" x="303.5" y="462.3857">sequence_number: integer</text><text fill="#000000" font-family="Verdana" font-size="14" lengthAdjust="spacing" textLength="75" x="303.5" y="478.6826">notes: text</text><text fill="#000000" font-family="Verdana" font-size="14" lengthAdjust="spacing" textLength="160" x="303.5" y="494.9795">created_on: timestamp</text><text fill="#000000" font-family="Verdana" font-size="14" lengthAdjust="spacing" textLength="180" x="303.5" y="511.2764">created_by_user_id: bigint</text><text fill="#000000" font-family="Verdana" font-size="14" lengthAdjust="spacing" textLength="166" x="303.5" y="527.5732">modified_on: timestamp</text><text fill="#000000" font-family="Verdana" font-size="14" lengthAdjust="spacing" textLength="186" x="303.5" y="543.8701">modified_by_user_id: bigint</text><text fill="#000000" font-family="Verdana" font-size="14" lengthAdjust="spacing" textLength="167" x="303.5" y="560.167">risk_probability_id: bigint</text><line style="stroke:#000000;stroke-width:1.0;" x1="298.5" x2="497.5" y1="567.4688" y2="567.4688"/><text fill="#000000" font-family="Verdana" font-size="14" lengthAdjust="spacing" textLength="122" x="303.5" y="584.4639">code: varchar(50)</text><text fill="#000000" font-family="Verdana" font-size="14" lengthAdjust="spacing" textLength="173" x="303.5" y="600.7607">description: varchar(100)</text><text fill="#000000" font-family="Verdana" font-size="14" lengthAdjust="spacing" textLength="142" x="303.5" y="617.0576">value: numeric(19,3)</text></g><!--link risk_consequence to risk_consequence_category--><g id="link_risk_consequence_risk_consequence_category"><path codeLine="126" d="M1051.5,284.24 C1051.5,284.24 1051.5,356.5 1051.5,356.5 " fill="none" id="risk_consequence-to-risk_consequence_category" style="stroke:#595959;stroke-width:1.0;"/><polygon fill="none" points="1058.5,356.5,1051.5,376.5,1044.5,356.5,1058.5,356.5" style="stroke:#595959;stroke-width:1.0;"/><text fill="#000000" font-family="Verdana" font-size="13" lengthAdjust="spacing" textLength="195" x="855.5" y="316.4369">risk_consequence_category_id</text></g><!--link risk_model_consequence_category to risk_consequence_category--><g id="link_risk_model_consequence_category_risk_consequence_category"><path codeLine="127" d="M886.15,148 C903.78,148 915.5,148 915.5,148 C915.5,148 915.5,356.08 915.5,356.08 " fill="none" id="risk_model_consequence_category-to-risk_consequence_category" style="stroke:#595959;stroke-width:1.0;"/><polygon fill="none" points="922.5,356.08,915.5,376.08,908.5,356.08,922.5,356.08" style="stroke:#595959;stroke-width:1.0;"/><text fill="#000000" font-family="Verdana" font-size="13" lengthAdjust="spacing" textLength="195" x="768.75" y="250.4269">risk_consequence_category_id</text></g><!--link risk_model_consequence_category to risk_model--><g id="link_risk_model_consequence_category_risk_model"><path codeLine="128" d="M714.25,268.42 C714.25,268.42 714.25,323.8 714.25,323.8 " fill="none" id="risk_model_consequence_category-to-risk_model" style="stroke:#595959;stroke-width:1.0;"/><polygon fill="none" points="721.25,323.8,714.25,343.8,707.25,323.8,721.25,323.8" style="stroke:#595959;stroke-width:1.0;"/><text fill="#000000" font-family="Verdana" font-size="13" lengthAdjust="spacing" textLength="87" x="626.25" y="292.1769">risk_model_id</text></g><!--link risk_model_importance to asset_importance--><g id="link_risk_model_importance_asset_importance"><path codeLine="129" d="M146,276.28 C146,276.28 146,348.49 146,348.49 " fill="none" id="risk_model_importance-to-asset_importance" style="stroke:#595959;stroke-width:1.0;"/><polygon fill="none" points="153,348.49,146,368.49,139,348.49,153,348.49" style="stroke:#595959;stroke-width:1.0;"/><text fill="#000000" font-family="Verdana" font-size="13" lengthAdjust="spacing" textLength="133" x="12" y="308.4569">asset_importance_id</text></g><!--link risk_model_importance to risk_model--><g id="link_risk_model_importance_risk_model"><path codeLine="130" d="M264.66,272 C383.46,272 548.75,272 548.75,272 C548.75,272 548.75,323.96 548.75,323.96 " fill="none" id="risk_model_importance-to-risk_model" style="stroke:#595959;stroke-width:1.0;"/><polygon fill="none" points="555.75,323.96,548.75,343.96,541.75,323.96,555.75,323.96" style="stroke:#595959;stroke-width:1.0;"/><text fill="#000000" font-family="Verdana" font-size="13" lengthAdjust="spacing" textLength="87" x="344.68" y="285.0669">risk_model_id</text></g><!--link risk_model_probability to risk_model--><g id="link_risk_model_probability_risk_model"><path codeLine="131" d="M513.5,259.54 C513.5,309.34 513.5,357 513.5,357 C513.5,357 515.49,357 515.49,357 " fill="none" id="risk_model_probability-to-risk_model" style="stroke:#595959;stroke-width:1.0;"/><polygon fill="none" points="513.35,350,533.35,357,513.35,364,513.35,350" style="stroke:#595959;stroke-width:1.0;"/><text fill="#000000" font-family="Verdana" font-size="13" lengthAdjust="spacing" textLength="87" x="425.5" y="305.3269">risk_model_id</text></g><!--link risk_model_probability to risk_probability--><g id="link_risk_model_probability_risk_probability"><path codeLine="132" d="M399,259.71 C399,259.71 399,348.45 399,348.45 " fill="none" id="risk_model_probability-to-risk_probability" style="stroke:#595959;stroke-width:1.0;"/><polygon fill="none" points="406,348.45,399,368.45,392,348.45,406,348.45" style="stroke:#595959;stroke-width:1.0;"/><text fill="#000000" font-family="Verdana" font-size="13" lengthAdjust="spacing" textLength="113" x="285" y="317.1469">risk_probability_id</text></g><!--SRC=[rLVRRjim37ttLsZPImkqGukX3_Ml39iWown3r9PSYiuM3FltoNBI-I8xJTTXheCW26dnKEUOfFo1jr21g4k59c5R2xOYiyos4ZaIQ4Ph4lU8fbQaAb6Y0TxN82pnrYQ9BfLpmd-19LQrjogZGVnCX10rK8NE-G2I2K1YdeeC2pJSUdT0hIiL_ZyKGAqDdLGUSGV-HcjBKAQrQfjxmqwHtYgwkBkvR8qvE4rOSmXnzDtUT4u7JmtuFAHfgWneWF4TiDZom6GiWqi5mu-GcIPG3Bbi8pDMu5XLTT-HxMNZW4ORgcoE3nXRz-o9BnoprtV_EZ1Cw1wbjkQuiuxX68VdinLdVLcz9OR7kKhjMIiixSTFW2eRZ-aZ0A6-kBs_-dov0ZacwRz0ZkSjhbcNjV4QUom61Fk0KFvxHlzKdclpUy2Y8SXdRo5b2l_ZCmgxVTEYKQLkIiLXlU-oQJ1_Ylh28b0ko72GT0qA1z6M9JspSk9XpsWqhrUb6nPopPrgdj4J8ep7TOpwPUPcXLcQQDxTdI-wGegmwayXixwrzxSnjISqgCbcAiCIUV_c8WH73-2TJOe9GRDKleZ4_pz-rzn4PcbE9WVFyNNzvUFTVVkv2kyGNw-_BJJcmvfKR9PwzoOvDIlMXjgTLABN4VLOeWEONWy-GUda5MiA4-cwhmJxgptrot4zCF7R1p338jZy1W00]--></g></svg>